<?xml version="1.0" standalone="no"?>
<!DOCTYPE svg PUBLIC "-//W3C//DTD SVG 20010904//EN"
 "http://www.w3.org/TR/2001/REC-SVG-20010904/DTD/svg10.dtd">
<svg version="1.0" xmlns="http://www.w3.org/2000/svg"
 width="1525.000000pt" height="1525.000000pt" viewBox="0 0 1525.000000 1525.000000"
 preserveAspectRatio="xMidYMid meet">
<metadata>
Created by potrace 1.14, written by Peter Selinger 2001-2017
</metadata>
<g transform="translate(0.000000,1525.000000) scale(0.100000,-0.100000)"
fill="#000000" stroke="none">
<path d="M14619 15218 c-20 -48 -16 -173 6 -198 9 -10 14 -24 10 -29 -11 -19
6 -52 31 -61 27 -11 33 -40 8 -40 -12 0 -15 -6 -10 -22 4 -13 12 -45 19 -71 8
-27 18 -52 24 -55 13 -9 35 -131 26 -146 -7 -10 -14 -69 -14 -111 0 -175 15
-298 40 -328 8 -9 15 -28 16 -42 0 -14 8 -30 17 -37 18 -14 14 -68 -4 -68 -7
0 -7 -4 -1 -12 6 -7 13 -53 17 -101 6 -82 5 -90 -17 -120 -13 -18 -24 -41 -25
-52 -4 -101 -7 -115 -24 -109 -14 4 -18 0 -18 -20 0 -17 6 -26 16 -26 10 0 13
-6 10 -18 -4 -11 1 -25 12 -36 17 -14 18 -22 9 -61 -6 -25 -16 -45 -22 -45
-15 0 -26 -97 -15 -120 4 -8 13 -37 19 -63 7 -32 23 -60 46 -83 21 -21 35 -45
35 -59 0 -18 7 -26 25 -31 19 -5 25 -13 25 -34 0 -16 7 -30 15 -34 9 -3 15
-18 15 -39 0 -19 -7 -40 -15 -47 -8 -7 -15 -25 -15 -40 0 -15 -7 -33 -15 -40
-8 -7 -15 -22 -15 -35 0 -12 -3 -25 -7 -28 -3 -4 -7 -33 -9 -64 -3 -75 -19
-175 -38 -241 -18 -61 -12 -141 14 -187 10 -16 20 -52 24 -79 3 -27 13 -60 22
-73 8 -13 12 -33 9 -43 -4 -13 -2 -20 7 -20 24 0 34 -34 33 -105 -2 -86 -6
-101 -31 -120 -19 -14 -19 -14 1 -15 18 -1 19 -1 3 -11 -22 -12 -23 -32 -3
-49 8 -7 12 -16 9 -21 -9 -15 19 -121 33 -126 10 -4 12 -17 7 -50 -5 -33 -2
-55 12 -85 15 -34 19 -37 26 -22 6 13 6 11 2 -6 -3 -14 -11 -62 -17 -107 -6
-47 -15 -83 -21 -83 -17 0 -66 -49 -66 -65 0 -8 5 -15 10 -15 6 0 10 7 10 16
0 14 3 14 15 4 10 -8 15 -30 15 -63 0 -36 5 -54 18 -63 16 -13 16 -15 -3 -30
-14 -11 -16 -18 -7 -21 15 -6 16 -83 1 -83 -6 0 -9 -14 -7 -32 2 -25 8 -34 26
-36 12 -2 20 -8 17 -13 -9 -13 17 -79 30 -79 7 0 17 -11 23 -25 6 -14 16 -25
22 -25 5 0 10 -19 10 -42 -1 -38 -2 -41 -14 -26 -7 10 -16 15 -19 11 -12 -11
-8 -51 6 -56 8 -3 7 -10 -7 -26 -24 -26 -17 -35 18 -21 31 11 46 6 46 -16 0
-22 17 -17 23 7 5 18 10 20 34 14 15 -4 50 -9 76 -12 l48 -5 -2 96 c-1 53 -5
97 -10 98 -5 0 -15 1 -21 2 -14 1 -28 16 -28 29 0 4 9 3 19 -3 30 -15 36 -12
14 8 -27 23 -41 64 -19 56 9 -3 16 -1 16 5 0 6 -6 11 -12 12 -7 0 -1 5 15 11
l27 10 0 2189 0 2189 -309 0 -309 0 -13 -32z m371 -3838 c0 -5 -6 -10 -12 -13
-10 -3 -8 -9 5 -24 20 -23 12 -39 -9 -18 -20 19 -19 76 1 69 8 -4 15 -10 15
-14z m215 -656 c13 -5 14 -8 3 -15 -19 -13 -28 -11 -28 6 0 17 2 18 25 9z"/>
<path d="M355 15199 c4 -13 14 -28 21 -32 23 -13 16 -52 -15 -81 l-30 -28 20
-37 c10 -19 19 -46 19 -58 0 -27 -52 -84 -97 -107 -18 -9 -33 -21 -33 -26 0
-5 -9 -12 -20 -15 -25 -8 -26 -33 -2 -42 9 -4 20 -11 24 -17 5 -8 11 -7 20 2
16 16 28 15 28 -1 0 -22 -35 -36 -71 -28 -37 9 -116 48 -125 62 -3 5 -16 9
-30 9 -14 0 -34 5 -45 10 -18 10 -19 6 -19 -105 0 -132 1 -134 85 -90 54 29
117 41 170 31 30 -6 34 -10 25 -22 -7 -8 -9 -14 -5 -14 4 0 2 -7 -5 -15 -14
-16 -8 -21 43 -29 16 -3 44 -10 63 -16 39 -13 96 -6 116 13 24 24 113 82 158
103 42 20 89 60 135 115 29 34 157 149 166 149 4 0 10 -6 12 -12 4 -8 6 -7 6
4 1 11 7 15 21 11 15 -4 19 -2 14 10 -3 8 1 28 9 44 8 15 19 45 25 65 l10 37
-51 17 c-29 9 -59 23 -68 30 -22 20 -66 17 -87 -4 -25 -25 -122 -30 -122 -7 0
10 -14 17 -40 21 -22 4 -40 12 -40 19 0 7 -7 15 -15 19 -8 3 -15 13 -15 22 0
15 -8 16 -62 9 -69 -8 -80 -8 -152 1 -47 6 -48 6 -41 -17z"/>
<path d="M4048 15107 c-16 -13 -28 -31 -28 -40 0 -25 -28 -32 -49 -13 -10 10
-27 17 -37 17 -43 -1 -83 -14 -87 -30 -3 -10 -5 -7 -6 8 -1 21 -4 23 -32 17
-17 -3 -35 -6 -40 -6 -5 0 -9 -11 -9 -25 0 -22 4 -25 40 -25 38 0 40 -1 40
-32 l0 -33 20 25 c17 22 22 23 40 12 16 -10 20 -10 20 2 0 17 48 10 72 -11 13
-11 41 -14 122 -12 100 3 105 5 111 26 3 13 10 23 15 23 17 0 11 26 -12 55
-24 31 -91 65 -128 64 -14 0 -37 -10 -52 -22z"/>
<path d="M1845 14683 c-26 -7 -123 -94 -146 -132 -30 -50 -25 -79 16 -97 33
-14 38 -13 93 15 69 36 143 104 161 149 12 29 12 35 -4 52 -18 20 -70 25 -120
13z"/>
<path d="M2408 14538 c-18 -15 -43 -101 -40 -140 1 -16 -2 -28 -7 -28 -4 0
-11 -14 -15 -31 -3 -17 -19 -43 -35 -60 -32 -32 -32 -69 0 -69 12 0 16 5 12
15 -6 18 23 44 50 45 19 0 52 48 66 96 4 16 20 43 35 58 31 34 32 43 6 76 -11
14 -20 31 -20 38 0 6 -8 12 -18 12 -10 0 -25 -6 -34 -12z"/>
<path d="M314 14195 c-16 -7 -38 -24 -47 -39 -10 -15 -22 -24 -26 -21 -5 3
-11 -2 -14 -10 -4 -8 -25 -28 -47 -44 l-42 -30 28 -7 c15 -4 45 -2 66 3 31 8
42 8 54 -4 18 -19 18 -32 -5 -82 -17 -39 -18 -91 -1 -91 24 0 16 -38 -19 -91
-22 -32 -45 -76 -52 -96 -17 -51 -67 -100 -141 -137 l-63 -31 -3 -64 -3 -64
78 69 c43 38 86 79 97 92 10 13 28 28 40 33 42 18 205 125 252 165 46 39 48
44 46 87 -1 26 3 49 8 52 6 3 10 28 10 55 0 41 -5 54 -29 79 -16 17 -33 40
-37 53 -8 25 -50 85 -74 106 -32 27 -45 30 -76 17z"/>
<path d="M8037 14098 c-64 -86 -86 -138 -94 -224 -6 -65 -10 -71 -41 -55 -79
41 -138 61 -202 69 -89 11 -232 4 -242 -12 -30 -46 29 -176 87 -190 16 -4 25
-13 25 -25 0 -19 18 -31 49 -31 9 0 24 -9 34 -20 13 -15 29 -20 69 -20 34 0
58 -6 70 -17 12 -10 42 -18 79 -21 l60 -4 -7 -32 c-9 -42 -12 -46 -36 -46 -35
0 -96 -42 -113 -76 -23 -49 -32 -49 -39 0 -6 39 -9 43 -36 44 -17 0 -30 -4
-30 -9 0 -6 -17 -18 -38 -27 -83 -37 -126 -98 -117 -166 5 -39 17 -48 62 -48
53 1 125 34 155 71 23 31 26 32 69 22 25 -6 54 -8 64 -6 11 2 56 9 100 15 119
17 120 17 135 45 13 25 40 35 40 15 0 -5 8 -10 18 -10 10 0 23 -5 28 -10 17
-17 184 0 192 18 5 15 -12 175 -24 218 -5 19 1 22 66 33 52 10 78 20 92 36 12
14 36 26 64 30 31 4 49 13 60 30 9 13 28 25 42 27 20 2 28 10 30 27 2 13 12
25 21 28 32 8 62 78 64 146 l2 62 -60 3 c-59 4 -161 -13 -179 -30 -6 -4 -18
-8 -28 -8 -44 0 -168 -91 -168 -123 0 -7 -11 -13 -25 -13 -19 0 -24 4 -20 18
3 10 7 27 10 37 3 11 1 22 -5 26 -5 3 -10 17 -10 30 0 52 -80 156 -163 214
-25 17 -48 31 -50 31 -3 0 -29 -33 -60 -72z m225 -462 c-3 -28 0 -35 20 -42
22 -8 24 -12 16 -41 -7 -29 -13 -33 -42 -33 -55 0 -93 -19 -117 -58 -12 -20
-22 -45 -21 -55 0 -9 -3 -15 -7 -12 -10 6 -26 91 -23 121 1 11 -7 29 -18 39
-22 20 -27 65 -7 65 7 0 28 -11 47 -25 19 -14 38 -25 44 -25 18 0 85 72 79 86
-3 9 2 14 14 14 16 0 18 -6 15 -34z m-192 4 c0 -5 -4 -10 -10 -10 -5 0 -10 5
-10 10 0 6 5 10 10 10 6 0 10 -4 10 -10z m-53 -114 c-4 -9 -11 -16 -16 -16
-15 0 -23 33 -9 41 17 11 32 -5 25 -25z m278 -96 c17 -27 -31 -42 -97 -31 -13
2 -9 29 5 34 23 10 86 7 92 -3z m-385 -60 c0 -15 -27 -23 -47 -16 -15 6 -15 8
-3 16 20 13 50 12 50 0z"/>
<path d="M2170 14140 c-13 -8 -12 -10 3 -10 9 0 17 5 17 10 0 12 -1 12 -20 0z"/>
<path d="M2545 14100 c-3 -5 -3 -20 1 -34 7 -31 34 -24 34 9 0 23 -25 41 -35
25z"/>
<path d="M4071 14006 c-29 -62 -15 -158 31 -211 58 -67 200 -48 229 29 17 46
20 87 9 102 -6 6 -38 20 -71 30 -33 10 -72 29 -85 43 -33 33 -98 37 -113 7z"/>
<path d="M555 13960 c-8 -13 3 -30 20 -30 11 0 25 20 25 36 0 9 -39 4 -45 -6z"/>
<path d="M1572 13662 c-32 -3 -73 -26 -119 -66 -12 -11 -28 -21 -35 -23 -7 -1
-44 -12 -83 -23 -115 -33 -127 -35 -136 -17 -9 16 -71 19 -76 4 -11 -28 2 -44
57 -71 52 -26 63 -28 87 -17 22 10 28 10 36 -4 6 -12 17 -15 40 -9 18 3 38 11
45 17 9 7 16 7 24 -1 7 -7 21 -12 33 -12 17 0 21 6 22 37 1 25 7 41 19 48 9 5
26 18 36 28 10 9 25 17 33 17 9 0 23 17 33 38 9 20 21 40 26 43 13 10 -6 15
-42 11z"/>
<path d="M900 13611 c0 -17 66 -61 91 -61 13 -1 35 -7 49 -15 30 -17 40 -18
40 -5 0 6 -8 14 -17 17 -10 4 -27 15 -38 26 -11 10 -32 21 -48 24 -15 3 -30
10 -33 14 -7 12 -44 11 -44 0z"/>
<path d="M8473 13502 c-30 -9 -72 -69 -68 -94 7 -35 35 -69 70 -84 46 -19 138
-32 163 -23 18 7 20 14 15 45 -5 29 -3 36 8 32 8 -3 14 -19 14 -39 0 -46 9
-57 57 -70 57 -15 106 -4 120 26 9 20 8 29 -7 45 -12 13 -16 28 -12 47 6 31
-13 64 -41 71 -74 17 -96 15 -119 -14 -26 -33 -34 -28 -42 23 -7 39 -8 39 -66
31 -5 0 -23 2 -40 5 -16 3 -40 2 -52 -1z m75 -88 c30 -8 29 -34 -2 -34 -35 0
-56 10 -56 26 0 15 21 18 58 8z"/>
<path d="M4255 13240 c-55 -11 -163 -74 -205 -120 -86 -94 -109 -132 -139
-230 -14 -44 -22 -56 -40 -58 -13 -2 -26 -12 -28 -23 -6 -22 -20 -24 -42 -5
-9 7 -48 16 -87 19 -71 6 -72 5 -104 -28 -29 -30 -33 -41 -34 -89 0 -31 5 -61
12 -68 7 -7 12 -20 12 -30 0 -31 40 -146 56 -159 17 -14 40 1 50 34 4 12 15
34 26 49 16 23 24 26 51 22 62 -10 137 -36 162 -55 13 -11 40 -23 59 -26 30
-5 37 -1 62 32 16 21 43 52 59 69 101 107 135 153 135 178 0 7 9 19 20 26 11
7 20 21 20 32 0 21 50 54 85 56 11 1 27 3 35 5 11 3 16 -6 18 -29 3 -28 7 -33
23 -29 14 4 19 0 19 -14 0 -11 7 -31 16 -44 12 -18 15 -43 12 -97 l-3 -72 28
-3 c16 -1 40 -9 53 -17 13 -9 30 -16 39 -16 8 0 15 -5 15 -10 0 -6 12 -2 28 8
15 10 45 31 68 46 23 15 47 39 55 54 7 15 27 44 43 66 27 35 29 41 17 70 -7
17 -17 49 -21 71 -18 89 -34 131 -58 158 -14 15 -32 27 -39 27 -7 0 -25 18
-39 40 -24 37 -30 40 -70 40 -24 0 -44 4 -44 9 0 5 -21 25 -47 44 -76 55 -192
83 -278 67z"/>
<path d="M2576 12950 c-47 -30 -60 -60 -27 -60 12 0 25 -11 33 -27 24 -50 114
-97 147 -76 18 12 32 68 24 101 -6 26 -95 82 -128 81 -11 0 -33 -9 -49 -19z"/>
<path d="M7710 12948 c-52 -11 -110 -21 -127 -25 -24 -4 -33 -11 -33 -24 0
-10 5 -19 11 -19 6 0 9 6 6 13 -3 9 7 13 34 13 21 1 46 7 55 15 9 7 31 12 50
11 19 -2 34 2 34 7 0 6 26 11 58 13 36 2 48 5 32 9 -14 3 -68 -3 -120 -13z"/>
<path d="M8407 12909 c7 -7 15 -10 18 -7 3 3 -2 9 -12 12 -14 6 -15 5 -6 -5z"/>
<path d="M8010 12898 c-25 -3 -56 -11 -70 -17 -22 -9 -20 -10 15 -6 22 3 84 7
138 11 53 3 95 10 92 15 -6 9 -104 8 -175 -3z"/>
<path d="M8205 12900 c-4 -6 18 -10 60 -10 42 0 64 4 60 10 -3 6 -30 10 -60
10 -30 0 -57 -4 -60 -10z"/>
<path d="M7518 12893 c7 -3 16 -2 19 1 4 3 -2 6 -13 5 -11 0 -14 -3 -6 -6z"/>
<path d="M7888 12873 c7 -3 16 -2 19 1 4 3 -2 6 -13 5 -11 0 -14 -3 -6 -6z"/>
<path d="M7400 12860 c0 -5 5 -10 10 -10 6 0 10 5 10 10 0 6 -4 10 -10 10 -5
0 -10 -4 -10 -10z"/>
<path d="M7838 12863 c7 -3 16 -2 19 1 4 3 -2 6 -13 5 -11 0 -14 -3 -6 -6z"/>
<path d="M1735 12840 c-25 -8 -35 -20 -50 -62 -11 -29 -18 -57 -16 -63 3 -5 5
-32 7 -59 2 -48 2 -49 -42 -72 -24 -13 -51 -21 -59 -18 -20 8 -38 -40 -29 -80
8 -41 32 -66 61 -66 13 0 23 -6 23 -14 0 -10 18 -17 57 -22 45 -5 70 -16 110
-45 134 -100 191 -239 149 -370 -8 -24 -22 -80 -31 -124 -9 -44 -25 -109 -35
-145 -10 -36 -24 -85 -31 -110 -7 -25 -26 -69 -42 -99 l-28 -54 22 -86 c12
-47 28 -94 34 -103 22 -33 115 -129 115 -118 0 5 6 10 14 10 7 0 18 6 24 13
16 19 25 331 12 407 -15 86 -17 145 -7 200 5 25 10 74 12 110 10 246 14 265
59 357 44 89 69 160 81 223 32 172 66 251 130 301 14 11 25 27 25 34 0 8 8 19
18 24 16 10 16 12 -3 27 -17 14 -41 15 -180 9 -184 -9 -250 -9 -320 -1 -27 3
-64 1 -80 -4z"/>
<path d="M7335 12840 c3 -5 12 -7 20 -3 21 7 19 13 -6 13 -11 0 -18 -4 -14
-10z"/>
<path d="M7230 12804 c-22 -12 -23 -14 -5 -14 11 1 29 7 39 15 26 19 1 18 -34
-1z"/>
<path d="M7145 12765 c-16 -8 -23 -14 -15 -14 8 0 26 6 40 14 32 18 15 18 -25
0z"/>
<path d="M7390 12760 c0 -3 -21 -11 -47 -18 -27 -6 -55 -14 -64 -16 -10 -3
-41 -16 -70 -30 -30 -13 -66 -28 -81 -31 -16 -4 -28 -11 -28 -16 0 -5 -8 -9
-19 -9 -10 0 -24 -7 -31 -15 -7 -9 -19 -14 -27 -11 -7 3 -13 1 -13 -4 0 -6 -7
-10 -16 -10 -9 0 -12 -5 -8 -12 5 -8 2 -9 -10 -5 -10 4 -15 3 -11 -3 3 -6 -3
-10 -14 -10 -12 0 -21 -5 -21 -11 0 -5 -4 -7 -10 -4 -5 3 -10 2 -10 -4 0 -5
-20 -20 -45 -32 -25 -12 -45 -26 -45 -30 0 -5 -7 -6 -15 -3 -8 4 -15 1 -15 -6
0 -6 -5 -8 -11 -5 -6 4 -13 -3 -16 -15 -3 -13 -11 -19 -20 -16 -8 3 -12 2 -9
-3 3 -5 -7 -14 -22 -20 -15 -7 -55 -38 -89 -69 -33 -32 -66 -56 -71 -54 -6 2
-9 -5 -8 -15 0 -10 -6 -18 -14 -18 -8 0 -38 -24 -66 -52 -29 -29 -55 -53 -58
-53 -16 0 -48 -39 -41 -51 5 -7 4 -10 -1 -6 -17 10 -85 -60 -77 -79 5 -13 3
-15 -7 -9 -8 5 -11 4 -7 -2 8 -13 -12 -73 -24 -73 -5 0 -9 -5 -9 -12 0 -6 -6
-19 -14 -27 -8 -9 -17 -32 -20 -51 -6 -30 -5 -33 6 -16 7 10 51 64 98 120 47
55 97 117 111 136 103 136 388 369 584 477 115 63 300 151 365 173 75 26 83
31 47 28 -15 -1 -27 -5 -27 -8z"/>
<path d="M7078 12733 c7 -3 16 -2 19 1 4 3 -2 6 -13 5 -11 0 -14 -3 -6 -6z"/>
<path d="M8380 12668 c-14 -5 -35 -7 -47 -5 -13 2 -23 0 -23 -5 0 -6 -15 -8
-37 -4 -28 5 -34 4 -23 -3 12 -8 6 -11 -25 -13 -22 -1 -52 -2 -67 -1 -16 1
-26 -3 -23 -7 3 -4 -4 -10 -15 -13 -11 -3 -18 -1 -14 4 3 5 1 9 -5 9 -5 0 -12
-4 -16 -10 -3 -5 -13 -6 -22 -3 -10 4 -14 2 -10 -4 4 -6 -5 -13 -21 -16 -15
-3 -30 -1 -33 5 -4 5 -13 2 -23 -7 -9 -10 -20 -15 -23 -11 -4 3 -17 -1 -30
-10 -17 -10 -34 -13 -55 -9 -26 6 -30 5 -25 -9 5 -12 1 -16 -15 -16 -21 0 -60
-11 -123 -34 -16 -6 -34 -10 -38 -8 -5 1 -6 -2 -3 -7 7 -11 -22 -36 -31 -27
-3 3 0 6 7 6 10 0 11 3 3 11 -8 8 -16 8 -30 0 -14 -8 -14 -11 -3 -11 13 0 13
-1 0 -10 -9 -5 -19 -5 -27 2 -10 8 -13 5 -13 -12 0 -15 -5 -20 -14 -17 -8 3
-16 2 -18 -3 -2 -4 -30 -17 -63 -28 -41 -13 -60 -24 -59 -35 1 -9 -4 -13 -12
-10 -22 8 -64 -6 -64 -22 0 -8 -4 -15 -9 -15 -6 0 -22 -11 -37 -25 -15 -14
-36 -25 -46 -25 -11 0 -16 -4 -13 -10 3 -5 -2 -10 -12 -10 -10 -1 -31 -12 -48
-26 -16 -15 -24 -23 -18 -20 9 5 11 2 7 -8 -4 -11 -14 -14 -32 -9 -15 3 -23 2
-19 -4 3 -5 -6 -17 -22 -26 -15 -8 -33 -27 -41 -41 -7 -14 -18 -26 -23 -26 -6
0 -2 10 9 22 13 14 7 12 -18 -8 -21 -16 -38 -32 -38 -36 0 -5 -7 -8 -15 -8 -9
0 -18 -7 -21 -15 -4 -8 -11 -15 -18 -15 -6 -1 -24 -19 -41 -40 -16 -21 -34
-39 -38 -40 -4 0 -21 -10 -37 -22 -22 -16 -27 -24 -18 -30 9 -5 6 -8 -9 -8
-16 0 -21 -4 -17 -15 4 -10 0 -15 -15 -15 -12 0 -21 -4 -21 -9 0 -11 -208
-221 -219 -221 -5 0 -11 -9 -14 -20 -3 -11 -13 -20 -22 -20 -10 0 -26 -9 -35
-20 -10 -12 -24 -19 -31 -18 -9 2 -13 -4 -11 -15 3 -15 -3 -17 -37 -13 -22 3
-49 13 -59 23 -29 27 -82 128 -85 163 -5 43 -11 44 -26 5 -7 -19 -16 -35 -21
-35 -12 0 -75 -136 -72 -152 1 -5 -2 -8 -7 -8 -17 0 -33 -119 -29 -214 4 -96
4 -96 -20 -96 -20 0 -23 -4 -19 -21 3 -13 0 -22 -10 -26 -12 -5 -12 -7 -1 -14
8 -5 -7 -9 -39 -9 -29 0 -53 5 -53 10 0 13 -61 13 -93 1 -39 -15 -94 -95 -106
-154 -13 -64 -17 -237 -6 -297 9 -56 20 -77 92 -179 65 -93 117 -187 133 -240
18 -59 42 -111 52 -111 5 0 8 -6 7 -12 -1 -7 -1 -20 0 -28 1 -12 3 -12 10 -2
5 9 8 -1 8 -28 0 -31 7 -48 28 -70 16 -16 32 -27 37 -24 4 3 8 0 8 -5 0 -6 15
-11 33 -11 22 0 28 -3 18 -9 -8 -5 -21 -7 -30 -4 -13 5 -13 3 -4 -7 8 -8 9
-20 3 -36 -5 -13 -7 -24 -4 -24 4 0 1 -7 -6 -14 -8 -10 -8 -21 -2 -32 6 -11
11 -13 16 -5 9 13 46 15 46 1 0 -5 -8 -6 -17 -3 -12 5 -15 2 -10 -10 4 -11 1
-17 -7 -17 -43 0 50 -110 119 -141 82 -37 173 -20 240 46 49 49 63 54 71 28
12 -37 33 -78 38 -75 15 6 17 1 6 -13 -10 -12 -10 -15 3 -15 11 0 16 -9 16
-27 -1 -51 14 -115 28 -120 11 -4 10 -8 -4 -19 -16 -13 -17 -15 -2 -27 11 -8
15 -22 11 -45 -4 -28 -1 -34 17 -39 22 -6 27 -18 12 -28 -6 -3 -6 -17 -1 -34
4 -16 6 -32 3 -35 -3 -3 0 -12 6 -20 8 -9 8 -16 2 -20 -7 -5 -7 -15 -1 -32 6
-14 7 -30 4 -36 -4 -6 1 -17 11 -24 10 -7 18 -24 18 -38 0 -14 6 -27 13 -30
16 -6 19 -67 4 -82 -6 -6 -2 -37 10 -88 11 -43 20 -92 20 -108 0 -16 6 -31 14
-34 10 -4 13 -20 11 -57 -2 -29 3 -71 11 -95 8 -23 14 -60 14 -82 0 -21 4 -41
9 -44 12 -8 20 -55 10 -62 -5 -2 -6 -17 -4 -32 2 -15 6 -55 9 -88 5 -55 3 -62
-14 -67 -11 -3 -20 -12 -20 -21 0 -10 6 -14 18 -10 9 2 7 0 -5 -7 -14 -7 -21
-20 -20 -35 1 -12 -2 -23 -7 -23 -5 1 -13 -5 -17 -13 -7 -10 -9 -9 -9 5 0 10
-4 16 -10 12 -6 -4 -6 -15 0 -31 12 -30 5 -45 -15 -37 -9 3 -15 -1 -15 -10 0
-9 -8 -18 -17 -20 -17 -4 -17 -5 0 -6 10 -1 17 -9 17 -21 0 -13 -5 -18 -15
-13 -9 3 -25 -3 -35 -12 -18 -17 -25 -14 -21 8 1 5 -6 7 -16 5 -16 -3 -18 -14
-15 -86 2 -83 -1 -90 -28 -72 -13 9 -13 11 0 19 12 8 12 13 -4 30 -22 25 -36
27 -36 6 0 -8 5 -15 11 -15 5 0 7 -5 4 -11 -4 -6 -13 -8 -19 -6 -7 3 -13 -1
-13 -9 0 -8 11 -17 24 -20 36 -9 28 -28 -9 -20 -29 6 -30 5 -16 -11 23 -27 33
-47 20 -39 -16 9 -16 -26 -1 -41 6 -6 17 -9 24 -7 7 3 17 -7 23 -25 10 -29 10
-30 -14 -19 -13 6 -24 15 -24 20 0 5 -9 4 -20 -2 -11 -6 -20 -18 -20 -28 0
-15 2 -15 10 -2 8 13 10 13 10 -1 0 -9 -10 -19 -22 -23 -22 -5 -22 -6 -5 -23
15 -16 19 -16 27 -3 9 13 11 13 19 1 12 -19 3 -41 -15 -34 -8 3 -14 0 -14 -6
0 -7 10 -16 23 -20 20 -8 20 -10 4 -16 -14 -6 -16 -14 -11 -44 4 -20 13 -44
20 -55 7 -10 10 -25 7 -33 -3 -8 0 -19 7 -23 11 -7 11 -11 0 -25 -12 -14 -12
-18 0 -25 11 -7 11 -11 1 -24 -8 -9 -21 -16 -30 -16 -14 -1 -14 -2 2 -14 19
-15 23 -36 6 -36 -5 0 -8 -4 -4 -9 3 -5 1 -12 -4 -15 -5 -4 -13 -2 -16 4 -4 6
-16 8 -27 4 -17 -5 -19 -3 -13 15 5 17 2 21 -14 21 -12 0 -21 5 -21 10 0 6 -6
10 -13 10 -16 0 -61 46 -63 63 -4 40 -4 41 -18 22 -13 -19 -19 -15 -95 65 -49
52 -83 97 -87 115 -4 16 -11 33 -15 36 -5 3 -11 15 -14 27 -2 12 -7 27 -10 32
-9 15 23 64 56 82 16 10 29 22 29 29 0 20 -72 0 -125 -35 -122 -80 -164 -106
-230 -138 -38 -20 -86 -39 -105 -43 -41 -8 -82 -32 -144 -83 -25 -20 -62 -46
-83 -57 -21 -10 -72 -43 -113 -72 -41 -30 -133 -93 -203 -142 -121 -84 -182
-131 -385 -297 -64 -52 -126 -91 -232 -143 -273 -134 -516 -270 -665 -372
-167 -115 -278 -180 -392 -228 -132 -57 -240 -131 -393 -269 -165 -149 -196
-193 -364 -527 -84 -166 -119 -217 -219 -321 -32 -34 -82 -96 -110 -140 -63
-95 -140 -161 -200 -171 -53 -8 -92 -46 -101 -99 -18 -106 -102 -181 -449
-398 -34 -21 -89 -61 -122 -88 -33 -27 -69 -57 -80 -65 -37 -30 -210 -187
-240 -217 -29 -31 -125 -188 -125 -206 0 -5 -31 -40 -68 -77 -68 -68 -70 -73
-63 -135 1 -3 13 -21 28 -38 41 -49 38 -102 -11 -169 -82 -111 -81 -109 -80
-276 1 -82 7 -184 13 -226 14 -90 5 -119 -47 -151 -33 -20 -45 -21 -278 -19
l-243 2 -91 -31 c-51 -16 -102 -37 -113 -45 -15 -10 -47 -15 -98 -15 -43 0
-84 -3 -93 -6 -14 -6 -16 -81 -16 -750 l0 -744 40 0 c22 0 40 -4 40 -10 0 -5
18 -10 40 -10 22 0 40 4 40 8 0 4 69 9 152 10 84 1 198 7 253 12 138 14 398
10 445 -7 29 -11 40 -11 57 0 6 4 14 3 18 -3 9 -15 25 -12 25 4 0 8 3 16 8 18
4 1 23 35 43 73 27 52 42 100 58 190 13 67 33 142 47 170 14 28 31 80 38 116
8 37 26 90 40 119 14 28 38 98 52 153 28 113 53 175 76 195 18 14 53 9 82 -13
19 -14 18 -16 -7 -52 -14 -21 -29 -51 -33 -68 -9 -39 -60 -141 -90 -181 -13
-17 -24 -37 -24 -45 0 -16 55 -96 99 -144 16 -18 34 -43 41 -56 7 -13 24 -35
36 -48 13 -13 24 -30 24 -37 0 -8 9 -13 22 -11 19 2 23 -5 32 -48 5 -27 12
-52 16 -55 11 -8 18 -60 9 -66 -10 -6 -1 -54 12 -69 12 -12 11 -55 0 -55 -5 0
-12 -30 -16 -67 -3 -38 -11 -77 -17 -87 -8 -15 -7 -22 6 -31 9 -7 16 -23 16
-36 0 -17 -3 -20 -9 -11 -13 21 -18 -3 -16 -78 2 -43 -3 -72 -13 -87 -13 -21
-12 -26 3 -49 14 -22 15 -33 6 -69 -6 -24 -11 -76 -11 -114 0 -66 -1 -71 -22
-71 -12 0 -30 -7 -40 -17 -17 -15 -19 -15 -36 0 -31 28 -44 19 -20 -13 27 -37
55 -39 70 -5 9 19 14 22 25 14 7 -6 13 -22 13 -35 0 -13 5 -24 10 -24 6 0 10
-7 10 -15 0 -18 -26 -20 -36 -4 -4 8 -10 6 -17 -6 -7 -13 -5 -20 7 -27 24 -13
20 -47 -9 -70 -20 -15 -24 -25 -19 -46 4 -15 11 -31 15 -37 5 -5 9 -19 9 -32
0 -20 5 -23 40 -23 29 0 40 -4 40 -15 0 -19 76 -21 83 -2 4 9 6 9 6 0 1 -17
58 -17 64 -1 4 10 6 10 6 1 1 -10 115 -13 538 -13 490 0 538 1 555 17 10 9 29
18 41 20 11 2 24 8 28 14 3 6 25 11 48 12 23 1 45 8 50 15 4 7 16 15 27 17 10
3 62 16 114 30 52 14 103 25 114 25 10 0 24 8 31 17 9 12 24 17 48 15 20 -2
50 4 67 13 39 20 260 32 260 14 0 -12 59 -10 77 4 7 5 20 4 32 -2 23 -13 95
-15 87 -3 -3 5 29 17 70 26 61 15 78 16 90 5 13 -10 17 -10 24 0 6 11 21 11
71 3 66 -10 412 -8 429 3 5 3 29 6 52 6 71 -1 143 13 146 28 4 20 -8 52 -18
46 -4 -3 -4 12 1 32 4 21 13 39 18 41 6 2 11 15 11 28 0 29 -25 32 -40 4 -6
-11 -14 -20 -18 -20 -18 0 -35 100 -36 206 -1 99 2 119 20 151 22 40 26 41
105 27 50 -8 56 8 28 63 -19 37 -34 51 -73 68 -109 48 -11 34 224 -32 69 -20
166 -46 215 -59 50 -12 117 -30 150 -39 194 -52 915 -228 979 -238 15 -3 58 1
95 9 36 7 116 20 176 29 204 29 437 96 590 170 102 49 322 174 376 214 67 48
190 166 223 211 18 25 51 86 75 135 23 50 48 93 55 97 19 11 100 136 124 190
23 54 99 167 147 218 17 19 42 51 55 70 13 19 40 51 60 71 19 20 40 43 47 51
26 35 64 122 78 180 8 35 19 64 24 66 5 2 27 17 48 34 119 95 321 155 389 115
45 -27 176 -181 209 -247 36 -72 77 -110 122 -113 16 -1 35 -11 45 -22 15 -18
28 -20 135 -20 112 1 121 2 188 33 141 67 230 98 403 142 80 20 101 32 101 58
0 9 7 60 16 112 23 138 23 144 0 147 -60 10 -69 14 -54 24 7 5 28 9 46 9 29 0
33 4 42 38 28 106 23 140 -16 108 -10 -8 -37 -30 -60 -50 -24 -19 -57 -37 -74
-41 -39 -9 -51 2 -13 11 29 7 129 81 173 128 22 23 23 31 18 95 -4 54 -1 87
15 142 12 42 18 86 15 105 -6 35 6 54 19 32 5 -7 9 -89 10 -183 1 -93 3 -174
4 -180 1 -5 2 -46 1 -90 -1 -56 -4 -75 -11 -65 -9 13 -10 13 -10 0 0 -9 7 -26
16 -39 11 -14 13 -26 7 -32 -7 -7 -3 -24 10 -50 13 -27 20 -62 21 -108 1 -66
2 -69 24 -65 26 5 159 77 181 99 14 14 11 56 -24 335 -8 63 -19 180 -25 260
-12 178 -26 227 -91 325 -56 83 -133 145 -207 165 -54 14 -57 40 -6 40 88 0
232 -119 290 -240 39 -81 51 -151 64 -360 6 -91 15 -183 20 -205 5 -22 10 -65
10 -95 0 -30 3 -79 6 -107 6 -49 9 -53 33 -53 56 0 99 23 183 98 48 42 104
102 125 132 80 114 171 144 239 79 20 -19 43 -47 51 -64 20 -38 43 -121 43
-157 0 -25 4 -28 35 -28 28 0 36 -4 41 -24 3 -14 3 -33 0 -44 -4 -10 -7 -290
-8 -622 0 -333 -4 -627 -8 -655 -6 -35 -9 2 -9 125 -4 633 -13 1166 -21 1174
-14 14 -40 -1 -40 -24 0 -11 -3 -20 -8 -20 -17 0 -102 -195 -102 -234 0 -15
-43 -43 -100 -66 -19 -8 -53 -29 -76 -47 -23 -18 -44 -33 -48 -33 -4 0 -26
-19 -49 -41 -23 -23 -56 -48 -73 -55 -18 -8 -34 -17 -36 -21 -1 -5 -28 -29
-58 -55 -52 -44 -127 -75 -154 -65 -7 3 -12 -3 -12 -14 1 -10 -2 -17 -5 -16
-11 3 -49 -35 -49 -50 0 -7 -4 -13 -9 -13 -5 0 -23 -12 -40 -26 -22 -18 -31
-35 -31 -55 0 -40 41 -81 74 -75 28 5 154 65 161 76 3 4 16 11 30 14 49 12
146 78 210 142 36 36 65 70 65 75 0 6 7 17 16 26 20 21 51 5 120 -62 54 -52
74 -96 74 -167 0 -33 -11 -47 -123 -162 -68 -69 -130 -126 -139 -126 -8 0 -31
-13 -49 -30 -19 -16 -53 -38 -76 -47 -24 -10 -43 -22 -43 -27 0 -12 -32 -35
-49 -36 -8 0 -53 -40 -100 -88 -116 -119 -181 -161 -248 -162 -12 0 -45 -9
-72 -20 -28 -11 -58 -17 -66 -14 -9 4 -23 0 -33 -9 -9 -8 -34 -20 -54 -27 -21
-6 -38 -15 -38 -19 0 -17 -91 -54 -132 -54 -42 1 -118 -29 -118 -46 0 -4 -11
-14 -25 -21 -14 -7 -25 -19 -25 -26 0 -21 -48 -28 -77 -13 -14 8 -33 25 -41
39 -29 47 -39 50 -96 30 -30 -10 -76 -34 -105 -54 -28 -20 -57 -36 -65 -36 -7
0 -19 -7 -26 -15 -7 -8 -20 -15 -29 -15 -9 0 -24 -11 -34 -24 -13 -18 -32 -26
-68 -31 -27 -4 -51 -11 -54 -16 -3 -4 -27 -18 -53 -29 -25 -11 -54 -28 -63
-36 -11 -10 -19 -12 -24 -5 -3 6 -11 11 -16 11 -6 0 -7 -4 -4 -10 3 -5 -2 -9
-12 -8 -10 0 -35 0 -56 0 -32 -2 -36 -4 -25 -15 16 -16 48 -29 48 -19 0 4 48
7 108 7 83 0 106 3 104 13 -1 8 2 11 8 7 5 -3 18 -2 28 4 11 6 24 6 34 0 10
-6 19 -6 23 0 3 6 12 8 20 4 10 -3 15 1 15 14 0 27 20 43 53 43 24 0 28 3 24
20 -6 25 -4 26 61 35 42 6 52 4 52 -8 0 -8 -7 -17 -15 -21 -8 -3 -15 -12 -15
-20 0 -14 -11 -19 -65 -29 -11 -2 -19 -9 -17 -17 4 -16 -16 -30 -44 -30 -12 0
-25 -10 -32 -25 -9 -19 -19 -25 -43 -25 -29 0 -30 -1 -24 -33 4 -17 14 -39 22
-48 7 -9 13 -20 12 -25 -5 -27 2 -34 26 -28 21 5 25 3 25 -15 0 -14 -9 -25
-24 -31 -18 -7 -27 -19 -32 -47 -8 -45 -20 -63 -44 -63 -9 0 -29 -10 -44 -21
-29 -23 -24 -39 13 -42 24 -1 38 -34 22 -50 -17 -17 -13 -48 7 -63 14 -11 209
-13 1065 -14 990 0 1047 1 1048 18 0 9 1 217 1 462 0 297 3 423 9 380 5 -36
11 -244 15 -462 l6 -398 747 0 746 0 1 207 c1 188 10 772 17 1077 3 110 4 120
26 137 13 11 35 22 50 25 14 4 60 19 101 35 41 15 126 46 189 69 332 118 448
226 390 360 -11 25 -22 65 -25 90 -8 70 -26 144 -38 159 -15 19 -27 369 -14
401 19 45 94 94 157 102 31 3 70 9 86 13 17 4 50 6 75 5 25 -2 52 -2 60 -2 8
1 58 4 110 6 62 3 114 12 150 26 42 15 82 21 167 23 107 2 113 1 128 -20 18
-25 44 -30 64 -10 6 6 33 12 59 12 26 1 54 4 63 8 11 6 20 -2 34 -30 24 -49
49 -367 33 -417 -6 -17 -12 -109 -14 -205 -2 -127 -8 -185 -19 -213 -8 -21
-15 -55 -15 -76 0 -60 -34 -174 -69 -232 -39 -63 -71 -150 -65 -177 4 -23 -2
-46 -28 -94 -38 -73 -51 -89 -71 -89 -9 0 -27 -14 -42 -32 -26 -31 -27 -35
-19 -98 10 -79 9 -137 -5 -255 -16 -139 -4 -364 24 -450 13 -38 30 -83 39
-100 9 -16 16 -36 16 -43 0 -7 11 -34 24 -60 13 -26 31 -71 40 -99 l18 -53
349 0 349 0 0 760 0 761 -30 -16 c-29 -15 -30 -15 -30 8 0 14 8 35 18 48 29
38 44 84 40 125 -3 31 -5 35 -12 19 -29 -74 -43 -102 -58 -117 -41 -41 -37
-11 6 56 36 56 51 93 48 113 -2 7 2 13 8 13 6 0 10 72 10 213 l0 214 -25 13
c-14 8 -28 25 -32 39 -6 25 -33 60 -33 44 0 -4 -7 8 -16 27 -8 19 -24 52 -35
72 -10 20 -19 45 -19 55 0 11 -4 23 -9 28 -5 6 -21 42 -36 80 -14 39 -36 95
-48 125 l-22 55 -6 -35 c-7 -43 -16 -26 -26 49 -8 57 -28 79 -36 39 -4 -20 -4
-20 -6 5 0 15 4 27 9 27 6 0 10 12 10 28 l0 27 -19 -24 c-16 -21 -19 -21 -24
-6 -11 26 -8 105 3 105 6 0 10 9 10 20 0 11 -6 20 -14 20 -16 0 -27 55 -13 69
5 5 5 30 -2 62 -6 30 -15 122 -21 205 -6 83 -15 166 -20 184 -5 18 -7 59 -3
91 3 32 2 66 -2 76 -10 21 -11 30 -13 62 -2 20 -4 21 -17 11 -8 -7 -13 -16
-10 -20 10 -17 -18 -112 -41 -139 -14 -17 -24 -42 -24 -59 0 -17 -4 -34 -10
-37 -5 -3 -10 -22 -10 -41 0 -19 5 -34 10 -34 6 0 10 17 10 38 0 20 4 32 8 27
4 -6 19 -10 34 -10 24 1 26 -2 21 -27 -3 -17 -1 -28 6 -28 20 0 13 -51 -9 -57
-18 -5 -18 -7 -3 -29 12 -19 13 -27 4 -38 -7 -8 -11 -20 -10 -28 1 -7 -3 -26
-9 -41 -7 -16 -17 -61 -23 -100 -5 -40 -14 -85 -19 -100 -5 -16 -13 -70 -16
-120 -6 -83 -14 -106 -36 -107 -5 0 -8 7 -8 15 0 8 -5 14 -12 13 -6 -2 -18 9
-26 23 -14 23 -13 28 5 55 26 36 38 111 22 130 -17 20 -33 17 -67 -11 -26 -21
-34 -24 -57 -15 -15 6 -30 8 -33 5 -7 -6 -82 36 -82 47 0 4 -7 8 -15 8 -13 0
-17 6 -14 27 3 19 -56 25 -279 29 -144 2 -280 10 -325 18 -42 7 -88 11 -101 9
-13 -3 -27 0 -30 6 -4 6 -18 11 -32 11 -18 0 -24 5 -24 21 0 12 -8 27 -17 34
-24 18 -43 272 -42 555 2 209 0 229 -20 284 -44 116 -37 249 13 276 40 21 125
19 739 -21 92 -6 235 -12 317 -13 l150 -1 0 51 c0 27 -4 54 -9 60 -14 14 -31
109 -31 169 0 43 -4 55 -18 59 -20 7 -57 70 -48 84 17 28 -69 49 -281 69 -69
6 -363 -11 -557 -33 -70 -8 -172 -17 -225 -20 l-96 -6 -33 34 c-54 57 -56 157
-4 205 61 57 66 58 332 68 72 2 148 11 180 20 30 9 64 19 75 22 11 2 54 16 96
29 l76 25 124 -22 c183 -31 235 -36 334 -32 80 3 103 7 153 32 7 3 21 20 30
36 9 17 21 33 26 36 15 12 18 106 3 121 -8 7 -17 32 -20 55 -4 24 -19 63 -32
88 -30 52 -37 96 -39 220 -2 98 -9 119 -35 110 -12 -3 -31 9 -60 40 -48 51
-75 56 -133 25 -28 -14 -56 -19 -119 -19 -45 0 -86 -4 -91 -9 -17 -17 -69 8
-118 55 -24 24 -54 43 -66 43 -12 0 -29 11 -38 25 -11 17 -26 25 -45 25 -35 0
-59 41 -37 63 8 8 13 31 12 55 -1 23 1 42 4 42 4 0 12 10 19 23 16 30 1 71
-42 112 -56 54 -109 116 -103 122 3 3 -3 14 -14 23 -28 24 -43 67 -47 135 -2
33 -5 76 -6 97 -2 29 -10 42 -41 67 -21 17 -42 31 -46 31 -14 0 -48 -46 -54
-73 -8 -33 -51 -77 -75 -77 -10 0 -22 5 -29 12 -9 9 -17 9 -34 1 -79 -38 -110
-23 -137 66 -21 69 -62 128 -82 116 -5 -4 -9 -1 -9 5 0 6 -4 8 -10 5 -5 -3
-10 1 -10 9 0 9 5 16 10 16 18 0 10 64 -10 89 -15 17 -26 22 -43 17 -15 -3
-43 3 -73 18 -71 34 -111 44 -187 49 -37 3 -78 12 -91 20 -18 12 -32 13 -62 7
-21 -5 -62 -10 -91 -10 -28 0 -64 -6 -80 -14 -15 -8 -41 -20 -57 -27 -16 -8
-33 -25 -38 -39 -6 -14 -14 -33 -19 -42 -5 -10 -9 -31 -9 -48 0 -19 -10 -42
-27 -61 -24 -27 -33 -30 -68 -26 -64 7 -81 14 -110 43 -21 21 -29 24 -36 13
-7 -11 -11 -11 -21 -1 -7 7 -13 18 -13 25 0 7 -25 15 -64 19 -35 4 -71 10 -80
14 -9 4 -27 8 -41 9 -14 1 -47 12 -75 25 -42 20 -69 24 -171 27 -93 2 -129 -1
-150 -12 -16 -8 -35 -15 -41 -15 -7 0 -15 -11 -19 -24 -3 -14 -14 -32 -25 -42
-10 -9 -19 -25 -19 -35 0 -10 -5 -21 -11 -24 -6 -4 -8 -13 -5 -21 3 -9 -7 -20
-26 -30 -29 -15 -36 -15 -92 2 -34 10 -76 29 -95 41 -19 13 -40 23 -47 23 -17
0 -17 1 -4 34 5 14 16 26 25 26 8 0 15 5 15 11 0 7 -9 9 -21 6 -15 -4 -30 4
-53 28 -38 41 -91 65 -146 65 -22 0 -56 7 -76 15 -19 8 -41 12 -50 8 -18 -7
-99 23 -135 50 -15 10 -32 31 -39 45 -10 23 -9 28 9 41 12 7 21 19 21 26 0 19
76 65 107 65 16 0 47 7 71 15 24 9 51 17 60 19 9 1 31 9 47 15 45 19 58 21
223 30 92 5 157 12 164 19 7 7 24 12 39 12 15 0 31 4 34 10 10 16 91 11 188
-11 72 -17 108 -20 181 -15 161 10 618 29 706 29 47 0 117 -2 156 -6 61 -5 76
-3 110 15 37 21 51 22 309 23 221 0 280 3 325 17 115 34 128 36 202 27 234
-30 277 -30 453 1 83 15 237 19 256 7 11 -7 34 -4 75 8 32 9 70 20 83 24 18 5
29 20 39 50 13 38 12 58 -2 165 -9 66 -19 139 -22 161 -7 59 -35 196 -45 222
-5 12 -9 39 -11 58 -2 33 -7 39 -56 62 -46 21 -62 24 -110 19 -31 -4 -70 -13
-87 -20 -16 -8 -48 -22 -70 -32 -22 -10 -46 -18 -52 -17 -7 0 -13 -6 -13 -14
0 -8 5 -11 11 -8 14 9 49 -23 49 -45 0 -32 -26 -50 -121 -83 -76 -27 -123 -36
-235 -46 -76 -7 -177 -11 -224 -10 -47 1 -161 -2 -255 -7 -93 -5 -192 -6 -220
-3 -27 4 -54 4 -59 1 -12 -7 -132 -15 -219 -15 -96 0 -245 32 -283 60 -17 13
-41 23 -52 23 -13 0 -22 6 -22 16 0 28 -112 124 -144 124 -8 0 -30 7 -51 16
-53 22 -173 34 -378 39 -196 5 -193 4 -320 89 -24 16 -32 16 -58 5 -59 -24
-65 -46 -70 -247 -2 -91 -2 -94 -28 -103 -14 -5 -39 -16 -54 -25 -18 -10 -32
-12 -40 -6 -7 5 -23 12 -37 15 -14 4 -34 21 -45 38 -41 65 -64 115 -65 137 0
14 -14 37 -32 54 -32 30 -34 30 -118 25 -83 -5 -87 -4 -173 34 -98 44 -109 46
-152 23 -16 -9 -54 -18 -82 -20 -53 -4 -53 -4 -53 26 0 16 -4 32 -10 35 -5 3
-7 18 -5 33 2 15 7 48 9 75 5 47 4 48 -37 74 -23 14 -48 32 -55 40 -8 7 -17
11 -22 8 -5 -3 -19 0 -32 5 -26 12 -71 87 -58 95 5 3 7 12 4 19 -4 9 7 18 30
26 20 6 36 16 36 22 0 7 16 9 43 5 28 -4 48 -2 56 6 6 6 17 12 24 12 7 1 37 5
69 9 36 5 63 4 75 -3 15 -8 9 -11 -32 -11 -76 -1 -33 -18 51 -21 63 -2 141 15
196 42 10 5 97 12 195 15 98 3 198 10 223 15 134 28 171 32 182 21 9 -9 7 -16
-8 -27 -18 -14 -18 -14 8 -15 14 0 29 6 32 13 5 10 7 10 12 0 8 -18 42 -16 60
2 17 17 6 16 249 21 99 1 199 5 223 7 23 2 45 0 48 -4 3 -5 15 -9 26 -9 33 0
97 -32 104 -52 3 -10 5 -36 6 -58 0 -22 7 -45 14 -51 8 -6 14 -24 14 -40 0
-29 26 -52 52 -46 7 2 10 2 6 0 -18 -10 -6 -21 30 -26 20 -3 70 -13 111 -22
40 -8 83 -13 94 -9 12 4 48 8 82 9 61 1 124 25 126 48 3 27 -3 53 -17 75 -11
17 -12 27 -4 43 6 11 10 41 8 67 -2 40 1 48 19 56 11 6 28 22 37 37 15 25 18
26 88 23 40 -2 88 -8 105 -13 22 -6 35 -6 39 0 7 12 81 9 108 -4 12 -6 26 -5
40 1 37 18 78 23 231 29 260 9 355 7 355 -9 0 -4 7 -8 15 -8 15 0 19 10 16 43
-1 9 3 17 10 17 6 0 26 16 43 35 37 40 93 53 135 31 14 -8 53 -22 86 -32 33
-9 69 -23 80 -30 11 -6 31 -15 44 -19 14 -4 34 -16 45 -26 11 -11 28 -19 37
-19 10 0 24 -3 32 -6 8 -3 21 2 30 10 9 9 32 18 53 21 46 6 48 8 61 70 27 119
37 241 23 289 -7 25 -10 63 -6 84 15 96 5 452 -14 482 -9 15 -129 43 -180 42
-19 0 -80 -2 -135 -4 -108 -4 -149 4 -230 45 -27 14 -54 23 -60 20 -34 -20
-101 -68 -103 -75 -2 -5 -15 -22 -28 -37 -19 -23 -38 -31 -87 -40 -98 -17
-139 -3 -227 78 -24 23 -58 45 -75 50 -34 9 -102 -1 -207 -30 -79 -23 -188
-24 -278 -3 -36 8 -91 18 -123 23 -108 18 -279 -23 -329 -77 -29 -31 -64 -96
-72 -132 -7 -35 -98 -134 -149 -162 -24 -14 -74 -35 -113 -48 -43 -15 -105
-49 -164 -91 -85 -59 -135 -91 -150 -94 -3 -1 -18 -7 -35 -14 -16 -7 -95 -28
-174 -47 -145 -35 -160 -35 -161 1 -1 10 -68 45 -87 45 -6 0 -24 6 -40 14 -73
37 -83 39 -145 33 -108 -11 -181 -34 -293 -95 -38 -20 -132 -20 -148 1 -18 22
-166 78 -222 84 -27 3 -122 -5 -210 -17 -234 -32 -336 -19 -375 47 -27 46 -36
37 -78 -77 -46 -125 -60 -191 -67 -327 -8 -141 -18 -129 114 -137 45 -4 86 -8
90 -10 3 -2 44 -7 91 -10 70 -5 88 -10 102 -27 16 -18 27 -20 95 -18 43 2 84
0 91 -5 22 -13 12 -45 -23 -72 -19 -14 -32 -31 -29 -36 10 -16 -27 -49 -48
-42 -10 3 -24 2 -31 -3 -14 -11 -127 -9 -175 2 -30 7 -55 34 -57 60 0 6 -22 9
-49 8 -52 -2 -86 -23 -86 -55 0 -17 -10 -22 -37 -19 -7 1 -13 -4 -13 -10 0 -7
-7 -20 -15 -29 -8 -9 -15 -29 -15 -45 -3 -67 10 -226 19 -244 6 -10 8 -20 6
-23 -3 -3 2 -27 10 -54 8 -27 15 -61 15 -75 0 -33 48 -93 78 -97 74 -11 104
-42 133 -140 7 -23 18 -47 25 -52 9 -8 9 -16 0 -35 -6 -14 -15 -25 -20 -25 -4
0 -1 -12 9 -26 9 -14 14 -33 10 -42 -3 -8 0 -19 7 -24 9 -5 6 -8 -9 -8 -16 0
-21 4 -17 15 4 10 2 13 -8 10 -9 -4 -25 5 -39 19 -13 14 -29 26 -35 26 -6 0
-30 20 -53 45 -41 44 -71 58 -71 33 0 -7 7 -22 15 -32 8 -11 13 -27 10 -37 -3
-9 1 -22 10 -29 8 -7 15 -22 15 -34 0 -12 10 -46 21 -76 12 -30 24 -67 26 -83
3 -15 9 -30 14 -33 5 -3 9 -18 9 -34 0 -16 5 -32 10 -35 6 -3 10 -19 10 -35 0
-16 5 -32 10 -35 6 -3 10 -15 10 -26 0 -11 8 -48 19 -82 24 -79 74 -285 74
-303 0 -8 4 -14 9 -14 4 0 8 -15 8 -34 0 -19 5 -38 10 -41 15 -9 13 -48 -2
-41 -7 3 -21 9 -30 12 -10 4 -18 12 -18 20 0 8 -6 11 -15 8 -9 -4 -15 0 -15 9
0 20 16 31 25 17 3 -5 13 -10 22 -10 13 0 13 3 -4 18 -25 22 -35 49 -22 58 6
4 4 13 -6 24 -11 12 -14 26 -10 40 8 26 -10 49 -34 43 -10 -3 -22 0 -26 7 -10
16 3 26 16 13 8 -8 15 -8 24 0 18 17 0 47 -29 47 -23 0 -54 25 -43 36 3 3 14
1 24 -4 11 -6 25 -7 32 -3 20 13 -8 53 -32 45 -18 -6 -47 11 -47 27 0 4 16 5
35 2 34 -5 35 -5 26 18 -5 14 -16 24 -28 24 -21 0 -53 22 -53 36 0 5 11 3 25
-3 19 -9 28 -9 37 0 14 14 -9 45 -29 38 -7 -3 -22 5 -33 17 -21 22 -10 38 13
19 8 -7 18 -7 27 -2 19 12 -2 36 -39 43 -16 3 -31 14 -35 23 -8 22 1 31 16 16
13 -13 48 -16 48 -4 0 14 -23 32 -40 32 -19 0 -56 37 -47 46 3 3 15 1 26 -6
27 -14 47 -4 30 16 -6 8 -17 14 -24 14 -6 0 -20 9 -30 20 -32 35 -48 26 -39
-22 10 -58 11 -246 1 -283 -4 -16 -12 -57 -18 -90 -34 -199 -87 -306 -212
-424 -120 -114 -151 -138 -226 -178 -77 -42 -102 -54 -152 -77 -31 -15 -62
-26 -70 -26 -8 0 -19 -4 -25 -9 -16 -16 -161 -61 -246 -77 -147 -28 -485 4
-633 59 -16 6 -39 12 -50 13 -23 2 -71 15 -265 74 -251 75 -346 113 -333 133
3 4 -1 8 -8 6 -29 -3 -50 1 -44 11 4 6 -5 10 -21 10 -39 0 -21 13 22 15 25 2
34 -1 30 -10 -3 -9 2 -11 15 -8 12 4 18 11 15 20 -3 8 -2 12 3 9 5 -3 11 1 14
9 8 18 48 11 65 -12 11 -16 14 -16 22 -3 7 10 12 12 18 4 8 -12 72 -15 72 -3
0 17 42 16 59 -2 10 -11 25 -17 33 -14 9 4 22 0 29 -7 18 -16 30 -19 94 -23
28 -1 56 2 63 8 8 7 12 5 12 -7 0 -25 20 -19 21 7 0 16 2 18 7 7 8 -17 32 -25
32 -11 0 6 -4 13 -10 16 -17 11 -11 26 25 61 39 37 43 47 19 37 -14 -5 -15 -3
-5 15 7 14 8 23 1 27 -18 11 -10 27 11 22 29 -8 49 2 49 24 0 13 7 19 23 20
21 0 21 1 2 9 -32 13 6 23 40 10 15 -6 31 -8 34 -4 3 4 0 9 -6 11 -7 3 -13 8
-13 13 0 13 38 -1 44 -16 3 -8 12 -11 22 -7 12 4 15 3 10 -5 -4 -7 -2 -12 3
-12 6 0 11 5 11 10 0 7 6 7 19 0 11 -5 29 -10 40 -10 12 0 21 -4 21 -10 0 -5
7 -10 15 -10 8 0 12 -6 9 -14 -4 -11 6 -16 41 -22 27 -4 42 -10 35 -14 -8 -5
-9 -10 -2 -14 13 -8 42 3 42 15 0 16 29 9 49 -12 11 -12 25 -18 31 -14 9 5 10
1 5 -14 -3 -12 -2 -21 4 -21 5 0 17 -3 25 -6 11 -4 15 -2 11 8 -4 10 5 18 30
25 19 6 37 8 40 3 2 -4 16 -7 31 -7 14 0 29 -6 33 -12 4 -6 15 -9 23 -6 9 4
19 2 23 -4 10 -17 46 -13 68 7 19 16 19 16 13 -5 -6 -18 -4 -22 8 -17 9 3 16
13 16 21 0 10 6 12 19 8 11 -3 25 1 34 9 11 11 17 12 26 3 8 -8 11 -7 11 6 0
9 7 17 16 17 19 0 14 22 -7 28 -11 3 -11 2 1 -7 19 -14 0 -14 -34 -1 -14 5
-26 15 -26 21 0 6 7 9 15 6 8 -4 17 -2 20 3 4 6 19 10 36 10 16 0 29 4 29 9 0
5 14 14 30 20 17 5 30 16 30 24 0 8 7 17 15 21 8 3 15 16 14 28 -1 21 -1 22
-7 3 -8 -24 -75 -35 -88 -14 -4 8 -3 10 4 5 7 -4 12 -2 12 5 0 7 11 10 30 7
17 -3 30 -1 30 4 0 4 -7 8 -16 8 -8 0 -12 5 -9 10 3 6 17 10 30 10 17 0 23 4
19 14 -3 8 -1 17 5 21 17 10 13 22 -9 28 -12 3 -20 14 -20 26 0 14 -6 21 -19
21 -24 0 -39 18 -43 55 -2 25 1 31 20 33 12 2 22 -1 22 -7 0 -6 -7 -11 -15
-11 -23 0 -18 -16 12 -35 l26 -17 -6 36 c-4 27 -2 38 11 46 14 9 12 10 -10 7
-16 -2 -28 -1 -28 4 0 17 -42 20 -59 5 -10 -9 -20 -16 -24 -16 -10 0 -24 64
-22 98 1 17 3 41 4 53 0 11 6 17 11 14 6 -3 10 -1 10 5 0 7 7 10 15 6 10 -3
15 1 15 12 0 15 2 15 10 2 8 -13 10 -13 10 2 0 19 -14 31 -24 21 -9 -10 -46
-11 -46 -2 0 4 -9 11 -20 14 -20 6 -20 7 1 24 l22 18 -24 23 c-17 16 -20 24
-11 27 9 3 3 10 -15 20 -18 9 -29 11 -31 4 -6 -17 -32 -13 -32 5 0 8 4 13 9
10 4 -3 6 5 4 18 -3 13 0 27 6 30 7 4 9 1 5 -8 -7 -17 18 -32 35 -21 7 4 5 14
-5 30 -10 15 -12 25 -5 30 6 3 11 11 11 16 0 6 -7 4 -15 -5 -23 -22 -114 -31
-148 -13 -18 10 -24 17 -17 22 7 4 17 2 22 -3 12 -12 67 -5 83 10 6 7 -5 8
-31 3 -28 -4 -49 -2 -63 7 -30 19 -26 28 14 28 24 0 37 6 45 21 9 16 14 18 26
8 11 -9 14 -8 14 5 0 9 6 16 13 16 6 0 4 5 -6 11 -9 6 -15 14 -12 19 6 10 -31
24 -44 16 -5 -3 -11 6 -14 19 -4 21 -1 25 14 20 13 -4 19 -1 19 9 0 9 4 16 8
16 5 0 24 14 42 30 29 26 31 30 13 30 -27 0 -39 29 -15 37 25 9 62 44 62 60 0
13 10 16 45 14 17 -2 17 0 5 8 -8 6 -23 11 -33 11 -10 0 -15 5 -12 10 4 6 15
8 26 5 10 -4 25 0 32 7 17 16 37 74 30 82 -4 3 3 6 15 6 12 0 22 5 22 10 0 6
7 10 15 10 8 0 15 5 15 10 0 6 -4 10 -10 10 -5 0 -10 5 -10 11 0 5 4 8 9 5 5
-3 14 8 20 24 7 21 17 30 33 31 13 0 18 3 12 5 -19 8 -4 54 17 54 11 0 19 4
19 9 0 13 -44 4 -48 -9 -2 -5 -9 -10 -16 -10 -7 0 -27 -16 -45 -36 -18 -19
-35 -33 -38 -30 -8 8 25 56 43 63 8 3 14 11 14 19 0 8 5 14 11 14 6 0 9 7 5
15 -3 8 -1 15 4 15 6 0 10 9 10 20 0 11 5 20 10 20 6 0 10 4 10 9 0 13 -37 5
-67 -14 -13 -9 -34 -18 -46 -20 -11 -3 -24 -10 -29 -17 -6 -10 -8 -10 -8 0 0
18 -18 15 -23 -5 -3 -13 -5 -12 -6 5 -1 16 -10 26 -31 33 -35 13 -39 26 -7 25
16 -1 23 5 25 22 2 12 8 22 14 22 6 0 8 10 5 21 -5 20 -3 21 45 17 43 -5 51
-3 55 13 3 11 9 19 13 19 5 0 12 9 15 20 4 11 11 18 16 14 6 -3 13 3 16 15 6
25 10 26 29 7 8 -8 11 -22 7 -32 -5 -13 -3 -16 10 -11 11 4 14 2 11 -8 -3 -7
-12 -16 -20 -19 -8 -3 -14 -15 -14 -26 0 -28 30 -26 31 3 1 16 2 18 6 5 6 -24
25 -23 21 0 -4 22 19 52 38 52 8 0 14 5 14 11 0 7 11 22 26 35 14 13 20 24 13
24 -7 0 -21 -8 -31 -17 -20 -18 -58 -25 -58 -11 0 4 -7 8 -16 8 -10 0 -14 6
-11 15 4 8 2 17 -3 20 -6 4 -10 -1 -10 -9 0 -9 -4 -16 -9 -16 -5 0 -8 8 -6 18
2 9 4 21 4 25 1 5 10 6 20 2 14 -4 25 1 36 19 11 16 22 23 32 19 12 -5 14 -3
8 8 -7 11 -6 12 6 2 23 -19 44 -1 30 26 -14 25 1 61 26 61 11 0 14 -6 9 -22
-14 -48 -16 -130 -3 -125 7 2 13 13 15 25 2 12 8 22 14 22 5 0 8 7 4 15 -3 9
0 15 9 15 14 0 18 6 73 114 19 36 37 66 41 66 4 0 20 27 36 60 15 32 35 62 42
64 8 3 12 10 9 15 -3 5 5 28 18 52 13 24 27 60 31 79 4 19 12 41 18 49 7 7 11
55 12 110 0 89 -2 98 -24 118 -28 25 -51 20 -51 -12 0 -12 -2 -38 -5 -56 -4
-27 -3 -29 3 -9 6 19 9 21 14 9 10 -25 -3 -71 -18 -65 -7 3 -15 -3 -17 -12 -5
-17 -12 79 -8 108 10 81 13 90 27 73 12 -16 15 -16 24 -3 6 10 10 11 10 3 0
-7 8 -13 18 -13 9 0 13 3 7 8 -6 4 -11 19 -12 34 -1 21 6 30 27 39 20 9 26 18
22 32 -6 23 17 40 35 25 9 -7 14 -6 19 7 8 20 -10 43 -20 26 -4 -6 -13 -11
-19 -11 -7 1 -2 9 9 18 15 13 21 28 20 53 -2 38 12 69 31 69 7 0 13 5 13 11 0
5 -5 7 -11 4 -17 -11 -47 28 -39 51 5 11 2 30 -5 44 -12 22 -13 23 -19 3 -5
-15 -13 -19 -36 -15 -17 2 -30 8 -30 11 0 16 13 20 31 10 14 -7 23 -5 36 9 32
33 23 51 -21 43 -5 -1 -22 1 -38 4 -25 6 -29 11 -24 31 6 23 4 24 -49 24 -43
0 -55 3 -55 16 0 11 6 14 20 9 11 -3 20 -2 20 3 0 9 -32 22 -58 22 -7 0 -17
-10 -22 -22 -9 -23 -9 -23 -7 2 1 14 -2 26 -7 27 -5 0 -13 8 -18 17 -5 9 -18
16 -28 16 -11 0 -20 4 -20 9 0 5 -13 11 -30 13 -20 3 -30 0 -30 -9 0 -7 -4
-13 -10 -13 -12 0 -12 2 0 34 8 21 6 26 -6 26 -8 0 -18 -9 -22 -21 -7 -19 -9
-19 -21 -5 -11 13 -11 16 0 16 10 0 10 3 1 12 -17 17 -15 31 4 24 13 -5 15 -2
11 14 -4 14 0 20 11 21 10 0 1 6 -18 13 -25 9 -34 18 -32 31 3 12 -1 16 -12
12 -8 -3 -18 -2 -21 3 -4 6 2 10 12 10 10 0 24 4 31 9 12 7 12 12 1 30 -8 11
-20 21 -28 21 -11 0 -9 4 5 15 16 13 17 16 4 25 -19 12 -53 13 -46 1 4 -5 -3
-7 -13 -4 -12 3 -17 11 -14 19 3 8 0 14 -7 14 -6 0 -9 4 -5 9 3 6 -2 14 -11
19 -14 8 -15 10 -1 15 10 4 25 -4 39 -18 19 -20 25 -22 38 -10 8 7 31 15 50
17 35 4 35 4 10 15 -24 11 -24 12 12 12 20 1 49 -4 63 -9 21 -8 26 -7 22 2 -2
7 -11 12 -21 10 -19 -3 -22 14 -4 20 9 3 8 9 -4 21 -9 10 -14 25 -11 37 6 23
25 16 21 -8 -2 -11 5 -18 20 -20 12 -2 22 2 22 8 0 7 -7 10 -15 6 -10 -3 -15
1 -15 12 0 10 -5 23 -11 29 -8 8 -8 17 0 31 8 16 7 21 -6 27 -14 5 -15 8 -4
14 8 6 11 16 6 31 -5 14 -3 20 3 16 6 -3 13 2 15 11 3 11 5 8 6 -9 0 -16 5
-28 11 -28 5 0 7 7 4 15 -7 17 29 57 61 69 16 6 17 9 5 17 -10 6 -12 11 -4 17
16 11 26 73 14 88 -7 8 -8 14 -1 18 6 4 8 13 5 21 -4 8 1 18 10 21 9 3 16 14
16 23 1 14 2 14 11 -1 11 -19 39 -25 39 -8 0 6 -4 10 -10 10 -5 0 -10 4 -10 9
0 4 11 6 25 3 18 -3 23 -8 16 -16 -8 -9 6 -11 56 -10 61 3 68 5 91 34 19 24
27 28 33 18 7 -10 9 -9 9 5 0 9 4 17 10 17 10 0 7 43 -6 74 -5 14 -4 17 4 12
16 -10 15 7 0 22 -10 10 -10 15 1 21 7 5 10 14 7 20 -4 6 -12 9 -17 6 -8 -5
-4 38 7 73 2 6 -1 12 -6 12 -6 0 -10 18 -10 40 0 33 3 40 20 40 24 0 25 8 4
38 -8 12 -12 22 -7 22 4 0 2 4 -6 9 -12 7 -12 13 -3 24 7 7 9 17 5 20 -3 4 -1
7 4 7 6 0 13 -6 16 -12 3 -9 7 -7 12 5 4 10 2 24 -5 32 -12 14 -16 13 -37 -6
-12 -13 -23 -18 -23 -13 0 5 14 21 32 37 l33 27 -30 -2 c-16 -2 -36 -10 -42
-18 -11 -13 -14 -12 -19 8 -5 16 -12 21 -22 17 -12 -4 -11 -1 3 15 17 19 21
19 30 6 14 -19 55 -10 56 13 0 13 2 14 6 1 3 -8 12 -19 20 -23 7 -5 11 -12 8
-18 -4 -5 -1 -9 5 -9 7 0 9 -7 6 -16 -3 -9 -2 -12 5 -9 6 4 13 -2 16 -13 3
-11 11 -23 18 -25 7 -3 18 -26 26 -51 7 -25 19 -46 26 -46 7 0 13 -9 13 -20 0
-11 4 -20 9 -20 4 0 18 -31 30 -70 12 -38 26 -72 31 -75 5 -3 7 -13 4 -23 -4
-12 -3 -14 3 -4 12 16 23 4 43 -46 13 -34 19 -165 11 -257 -4 -42 -2 -50 12
-47 26 4 49 -41 45 -90 -2 -24 -6 -45 -9 -48 -3 -3 -9 -18 -13 -35 -6 -28 -5
-29 9 -11 8 11 15 17 15 13 0 -4 25 7 56 23 30 17 59 28 65 25 5 -4 9 -1 9 6
0 6 8 18 18 25 11 9 13 16 6 21 -6 5 -10 25 -9 46 1 26 -3 41 -13 44 -7 3 -10
9 -5 12 4 3 13 16 20 27 9 17 8 25 -5 39 -9 10 -11 15 -4 11 7 -4 12 -1 12 8
0 8 -5 16 -12 18 -7 3 -12 31 -13 79 0 58 -4 74 -15 74 -31 1 -45 20 -46 63
-1 37 1 42 17 37 19 -6 27 9 10 19 -5 3 -11 17 -13 31 -4 20 -3 23 8 14 11 -9
16 -6 23 12 8 21 10 22 16 7 9 -22 25 -24 25 -3 0 8 7 15 16 15 9 0 14 -7 13
-17 -2 -10 0 -40 4 -68 8 -59 14 -115 22 -210 8 -104 16 -145 26 -145 7 0 61
95 58 102 0 2 4 14 9 28 60 148 87 264 87 380 0 109 -15 143 -66 154 -36 7
-61 -5 -109 -51 -19 -18 -40 -31 -47 -29 -15 6 -24 -31 -13 -59 8 -21 7 -22
-16 -11 -26 12 -33 53 -12 74 8 8 8 15 1 24 -8 10 -25 161 -24 213 0 6 2 55 4
110 2 55 0 103 -5 106 -5 3 5 6 23 7 18 0 37 8 44 19 17 24 18 38 3 38 -9 0
-12 14 -10 43 2 34 -1 42 -14 42 -15 0 -43 26 -44 41 0 4 12 10 26 13 l27 7
-34 35 c-32 34 -153 120 -174 124 -5 2 -20 13 -33 27 -12 13 -27 21 -32 18 -6
-3 -13 1 -16 9 -3 9 -10 16 -15 16 -5 0 -31 15 -57 34 -27 18 -63 37 -81 41
-17 4 -41 16 -51 28 -11 11 -20 16 -20 10 0 -6 -9 -9 -20 -6 -11 3 -18 9 -15
12 2 4 -11 14 -30 21 -19 8 -35 17 -35 22 0 4 -3 8 -7 7 -17 -2 -53 14 -53 23
0 6 -10 8 -22 5 -13 -4 -31 1 -46 14 -14 10 -38 19 -53 19 -16 0 -29 5 -29 10
0 6 -11 10 -25 10 -14 0 -28 7 -31 15 -4 10 -15 12 -36 8 -22 -4 -33 -2 -40
10 -4 9 -15 14 -23 11 -8 -4 -15 -1 -15 5 0 6 -6 8 -13 5 -7 -2 -29 2 -48 9
-18 8 -40 12 -46 10 -7 -3 -13 0 -13 5 0 5 -14 12 -31 16 -17 3 -28 9 -25 14
2 4 -23 9 -57 10 -33 2 -66 6 -71 11 -21 16 -143 36 -283 45 -29 2 -59 8 -65
14 -14 11 -389 12 -382 1 2 -4 -11 -4 -29 1 -18 4 -44 3 -57 -2z m2038 -897
c3 -8 -1 -12 -9 -9 -7 2 -15 10 -17 17 -3 8 1 12 9 9 7 -2 15 -10 17 -17z m6
-32 c-8 -14 -34 -10 -34 5 0 9 7 12 20 9 11 -3 17 -9 14 -14z m6 -49 c0 -5
-10 -10 -22 -9 -22 0 -22 1 -3 9 11 5 21 9 23 9 1 1 2 -3 2 -9z m15 -492 c-12
-16 -16 -18 -11 -5 3 10 6 26 6 35 0 12 3 13 11 5 8 -8 7 -17 -6 -35z m-468
-70 c-3 -8 -6 -5 -6 6 -1 11 2 17 5 13 3 -3 4 -12 1 -19z m-3344 -600 c-6 -36
-10 -44 -18 -36 -8 8 6 68 16 68 5 0 6 -15 2 -32z m2935 -13 c-3 -3 -9 2 -12
12 -6 14 -5 15 5 6 7 -7 10 -15 7 -18z m-2968 -15 c0 -23 -4 -30 -20 -30 -11
0 -20 -6 -20 -12 0 -9 -3 -10 -8 -2 -4 6 -14 14 -22 17 -11 4 -9 7 8 13 18 5
20 9 11 20 -9 11 -8 14 5 14 9 0 16 -8 17 -17 0 -14 2 -13 9 5 13 30 20 28 20
-8z m0 -90 c0 -30 5 -40 20 -45 26 -8 25 -21 -2 -30 l-23 -8 23 -4 c21 -4 32
-23 12 -23 -5 0 -7 -7 -4 -15 4 -9 0 -15 -10 -15 -18 0 -22 -15 -6 -25 6 -3
10 -19 10 -35 0 -16 5 -32 10 -35 7 -4 7 -12 2 -18 -15 -21 -13 -67 3 -67 21
0 19 -23 -2 -36 -23 -14 -39 -12 -35 4 4 18 -15 15 -26 -5 -14 -24 -40 -9 -37
21 2 14 6 30 10 36 4 7 -3 9 -22 5 -26 -5 -27 -5 -5 6 26 14 31 42 5 32 -13
-5 -15 -2 -9 12 3 10 2 21 -4 25 -5 3 -11 24 -12 45 -2 22 -8 45 -14 52 -14
15 -11 76 5 81 6 2 11 15 11 28 0 15 6 24 15 24 8 0 15 8 15 18 0 9 4 13 8 7
4 -5 15 -11 26 -13 13 -3 17 1 13 12 -4 10 -1 13 9 9 9 -3 14 -19 14 -43z
m240 20 c0 -5 -2 -10 -4 -10 -3 0 -8 5 -11 10 -3 6 -1 10 4 10 6 0 11 -4 11
-10z m1900 -41 c0 -11 -7 -19 -16 -19 -14 0 -14 -3 -4 -15 18 -21 -3 -46 -22
-27 -9 9 -8 12 6 12 15 0 16 3 7 14 -9 10 -9 16 -1 21 6 4 9 13 6 20 -2 7 -2
16 1 19 10 10 23 -4 23 -25z m105 11 c-3 -5 -10 -10 -16 -10 -5 0 -9 5 -9 10
0 6 7 10 16 10 8 0 12 -4 9 -10z m-74 -53 c-6 -6 -11 -17 -11 -25 0 -16 24
-11 26 6 1 7 2 16 3 21 1 13 38 2 52 -16 11 -12 8 -13 -16 -7 -21 5 -26 4 -20
-6 4 -7 18 -10 35 -6 37 7 43 -2 19 -27 -28 -30 -24 -36 24 -30 66 7 87 13 87
23 0 6 -3 9 -7 8 -15 -4 -73 14 -73 22 0 4 17 10 38 13 29 3 41 0 53 -16 11
-14 23 -18 38 -14 17 4 20 3 11 -8 -10 -12 0 -16 77 -27 18 -2 25 -28 8 -28
-8 0 -15 5 -15 12 0 9 -3 9 -12 0 -9 -9 -8 -15 7 -25 17 -13 16 -14 -6 -12
-13 1 -23 8 -21 14 1 6 -2 11 -8 11 -5 0 -11 8 -11 18 -1 16 -2 16 -6 0 -4
-14 -15 -18 -56 -18 -29 0 -59 4 -67 10 -9 5 -19 5 -27 -2 -15 -12 -18 -68 -3
-68 6 0 10 -5 10 -11 0 -5 -4 -7 -10 -4 -5 3 -10 -1 -10 -9 0 -9 7 -16 16 -16
13 0 14 -3 5 -14 -9 -11 -8 -17 7 -28 10 -7 21 -20 24 -28 4 -11 8 -9 16 10 6
14 11 19 11 13 1 -7 7 -12 14 -10 6 1 11 -4 10 -10 -2 -7 4 -13 12 -13 18 0
20 -17 3 -23 -7 -2 2 -7 20 -11 19 -5 33 -14 34 -24 0 -9 2 -22 2 -29 1 -6 4
-15 8 -19 4 -4 5 -17 2 -29 -3 -13 -1 -26 5 -29 14 -9 14 -36 1 -36 -5 0 -10
8 -11 18 0 13 -2 14 -6 2 -14 -39 -83 -55 -101 -24 -7 13 -19 15 -58 10 -111
-12 -109 -12 -109 9 0 11 -5 20 -12 20 -7 0 -18 6 -24 13 -15 14 -33 16 -25 3
3 -5 0 -11 -8 -14 -14 -6 -16 9 -3 30 4 6 3 14 -3 18 -6 4 -7 11 -4 17 4 6 1
14 -5 18 -15 9 -5 71 15 97 11 14 14 15 13 3 -3 -32 2 -45 10 -25 10 25 3 45
-16 45 -13 0 -13 3 -3 15 10 12 10 15 -4 15 -9 0 -16 5 -16 10 0 6 5 10 10 10
6 0 10 5 10 11 0 5 -4 8 -9 5 -5 -3 -11 0 -14 8 -4 9 -14 12 -26 9 -13 -3 -21
-1 -21 7 0 7 7 10 15 6 9 -3 18 1 22 11 5 14 8 13 14 -5 5 -14 14 -20 23 -16
14 5 14 8 1 21 -17 16 -20 38 -5 28 14 -8 13 -3 -6 33 -16 32 -12 52 9 52 14
0 41 39 33 47 -3 3 1 11 7 18 10 11 13 10 15 -2 2 -8 -1 -20 -7 -26z m-2421
-28 c0 -26 -3 -29 -14 -20 -8 7 -12 21 -9 31 8 31 23 23 23 -11z m367 -61 c-3
-8 -6 -5 -6 6 -1 11 2 17 5 13 3 -3 4 -12 1 -19z m43 -25 c0 -22 -2 -25 -10
-13 -13 20 -13 40 0 40 6 0 10 -12 10 -27z m1910 17 c0 -5 -5 -10 -11 -10 -5
0 -7 5 -4 10 3 6 8 10 11 10 2 0 4 -4 4 -10z m247 -36 c-3 -3 -12 -4 -19 -1
-8 3 -5 6 6 6 11 1 17 -2 13 -5z m76 -11 c-7 -2 -21 -2 -30 0 -10 3 -4 5 12 5
17 0 24 -2 18 -5z m227 -3 c0 -5 -4 -10 -10 -10 -5 0 -10 5 -10 10 0 6 5 10
10 10 6 0 10 -4 10 -10z m-60 -20 c0 -5 -4 -10 -9 -10 -6 0 -13 5 -16 10 -3 6
1 10 9 10 9 0 16 -4 16 -10z m101 0 c23 -13 25 -37 4 -37 -8 0 -15 5 -15 10 0
5 -7 7 -15 3 -17 -6 -18 -4 -9 18 7 19 9 19 35 6z m-2451 -50 c-4 -3 -10 -14
-13 -25 -4 -19 -5 -19 -6 1 0 12 -8 27 -17 35 -14 12 -14 14 2 26 16 12 20 10
30 -9 7 -13 9 -25 4 -28z m-584 -47 c-3 -7 -1 -13 4 -13 16 0 11 -30 -5 -36
-8 -4 -12 -10 -9 -16 3 -5 3 -17 -1 -26 -6 -15 -8 -15 -15 3 -8 19 -9 19 -9
-3 -1 -22 -1 -23 -25 -5 l-23 18 24 31 c14 19 21 38 17 48 -4 11 -1 16 10 16
10 0 14 6 10 18 -5 14 -3 14 10 -3 9 -11 14 -25 12 -32z m3202 37 c11 0 13 -3
6 -10 -6 -6 -25 -7 -43 -4 -23 5 -29 9 -19 15 7 5 19 7 26 4 8 -3 21 -5 30 -5z
m-2668 -16 c0 -8 -5 -12 -10 -9 -6 4 -8 11 -5 16 9 14 15 11 15 -7z m1930 12
c0 -3 -4 -8 -10 -11 -5 -3 -10 -1 -10 4 0 6 5 11 10 11 6 0 10 -2 10 -4z m590
-6 c0 -5 -2 -10 -4 -10 -3 0 -8 5 -11 10 -3 6 -1 10 4 10 6 0 11 -4 11 -10z
m169 -39 c8 -5 9 -11 3 -15 -5 -3 -15 1 -22 9 -14 16 -3 20 19 6z m-2759 -41
c-6 -11 -16 -17 -22 -14 -7 5 -5 12 7 21 25 18 28 17 15 -7z m85 0 c-3 -5 -10
-10 -16 -10 -5 0 -9 5 -9 10 0 6 7 10 16 10 8 0 12 -4 9 -10z m-205 -10 c0 -5
-8 -10 -17 -10 -15 0 -16 2 -3 10 19 12 20 12 20 0z m130 -12 c23 14 40 16 40
3 0 -5 -9 -11 -20 -14 -25 -6 -26 -24 -2 -30 11 -3 9 -5 -8 -6 -17 -1 -35 9
-52 29 -28 32 -25 50 4 23 16 -14 23 -15 38 -5z m290 -48 c0 -19 -6 -29 -20
-33 -21 -5 -28 7 -9 18 6 4 7 20 3 38 -6 28 -5 30 10 18 9 -7 16 -26 16 -41z
m-210 31 c0 -14 -18 -23 -30 -16 -6 4 -8 11 -5 16 8 12 35 12 35 0z m2811 -14
c-13 -13 -26 -3 -16 12 3 6 11 8 17 5 6 -4 6 -10 -1 -17z m-2936 -21 c0 -25
57 -32 80 -10 25 26 28 10 4 -30 -21 -36 -39 -47 -39 -23 0 6 -12 17 -26 24
-23 10 -26 9 -34 -13 -14 -35 -20 -29 -9 8 11 40 11 40 2 35 -5 -3 -13 1 -20
8 -10 11 -10 15 0 19 22 9 42 1 42 -18z m271 -13 c-10 -10 -19 5 -10 18 6 11
8 11 12 0 2 -7 1 -15 -2 -18z m1751 5 c-3 -8 -6 -5 -6 6 -1 11 2 17 5 13 3 -3
4 -12 1 -19z m-1867 -8 c0 -5 -7 -7 -15 -4 -8 4 -12 10 -9 15 6 11 24 2 24
-11z m80 -10 c0 -5 -2 -10 -4 -10 -3 0 -8 5 -11 10 -3 6 -1 10 4 10 6 0 11 -4
11 -10z m2835 1 c3 -5 1 -12 -5 -16 -5 -3 -10 1 -10 9 0 18 6 21 15 7z m-2745
-31 c0 -5 -8 -10 -17 -10 -16 -1 -16 -2 1 -15 11 -8 16 -18 11 -22 -4 -5 -10
-2 -12 5 -3 6 -9 10 -14 6 -13 -8 -11 20 3 34 15 15 28 16 28 2z m-300 -25 c7
-8 9 -15 6 -15 -4 0 -14 7 -22 15 -9 8 -11 15 -6 15 5 0 15 -7 22 -15z m3145
5 c3 -5 1 -10 -4 -10 -6 0 -11 5 -11 10 0 6 2 10 4 10 3 0 8 -4 11 -10z
m-2995 -18 c0 -13 -12 -22 -22 -16 -10 6 -1 24 13 24 5 0 9 -4 9 -8z m-165
-22 c-3 -5 -10 -10 -16 -10 -5 0 -9 5 -9 10 0 6 7 10 16 10 8 0 12 -4 9 -10z
m309 -9 c3 -5 -1 -11 -9 -15 -9 -3 -15 0 -15 9 0 16 16 20 24 6z m-268 -38
c16 -21 18 -37 4 -28 -13 8 -33 45 -24 45 4 0 13 -8 20 -17z m-466 -23 c0 -5
-7 -10 -15 -10 -8 0 -15 5 -15 10 0 6 7 10 15 10 8 0 15 -4 15 -10z m418 -12
c1 -13 2 -31 3 -40 0 -10 6 -18 14 -18 7 0 16 -12 20 -27 l7 -28 11 25 c10 25
10 25 17 -10 4 -19 8 -30 9 -25 1 6 6 3 12 -5 9 -12 10 -11 6 7 -3 15 -1 20 9
16 19 -7 22 -35 5 -55 -11 -13 -17 -15 -23 -5 -6 9 -8 9 -8 -1 0 -7 6 -15 13
-18 8 -3 12 -18 10 -40 -2 -28 2 -37 17 -41 15 -4 17 -9 9 -30 -7 -18 -5 -28
6 -40 12 -12 13 -18 4 -29 -9 -11 -8 -14 4 -14 10 0 13 -6 10 -19 -6 -22 35
-161 51 -176 6 -5 10 -24 9 -42 -1 -19 4 -34 13 -37 21 -8 17 -26 -7 -26 -11
0 -17 -4 -14 -10 3 -5 -3 -10 -14 -10 -14 0 -19 5 -15 15 4 8 1 15 -5 15 -22
0 -11 20 12 20 19 1 19 2 -8 15 -16 7 -24 14 -17 14 13 1 17 31 4 31 -5 0 -13
17 -18 38 -5 20 -14 36 -20 35 -6 -1 -10 6 -10 15 1 9 -2 17 -5 17 -4 0 -16 8
-27 18 -26 23 -33 63 -15 79 12 10 12 13 -1 20 -11 6 -16 24 -16 56 0 26 0 57
0 70 0 12 -5 22 -11 22 -5 0 -7 5 -4 10 3 6 1 10 -6 10 -7 0 -9 10 -7 24 3 15
0 27 -8 30 -8 3 -14 14 -14 26 0 11 -5 39 -12 63 -6 24 -8 51 -5 60 9 23 12
21 15 -5z m2362 -283 c-7 -9 -15 -13 -17 -11 -7 7 7 26 19 26 6 0 6 -6 -2 -15z
m-56 -92 c-13 -14 -21 -15 -46 -5 -16 6 -36 8 -44 5 -8 -3 -22 -1 -31 3 -12 6
5 10 52 14 82 6 90 4 69 -17z m39 12 c-3 -9 -8 -14 -10 -11 -3 3 -2 9 2 15 9
16 15 13 8 -4z m57 -13 c0 -5 -7 -9 -15 -9 -8 0 -15 4 -15 9 0 4 7 8 15 8 8 0
15 -4 15 -8z m798 -49 c-1 -10 2 -30 5 -45 9 -35 2 -36 -19 -3 -9 14 -13 32
-9 45 8 25 24 27 23 3z m-3138 -43 c0 -5 -2 -10 -4 -10 -3 0 -8 5 -11 10 -3 6
-1 10 4 10 6 0 11 -4 11 -10z m2058 -193 c7 10 11 10 25 0 19 -14 49 -82 40
-91 -4 -3 -1 -6 6 -6 6 0 14 14 18 30 3 17 9 30 14 30 5 0 8 3 8 8 -5 30 41
53 65 33 7 -6 17 -7 21 -3 5 4 5 1 1 -6 -4 -7 -13 -10 -19 -6 -7 3 -4 -1 6 -9
19 -16 23 -42 7 -52 -6 -4 -8 -10 -5 -15 10 -16 -26 -33 -75 -34 -41 -2 -53
-7 -74 -30 -17 -21 -30 -27 -45 -23 -12 3 -19 1 -15 -4 6 -10 -39 -12 -72 -3
-17 4 -21 14 -22 50 0 24 3 44 8 44 4 0 5 11 2 25 -3 18 0 25 12 25 9 0 16 8
17 18 0 9 3 12 6 5 3 -9 11 -7 26 7 16 15 23 17 29 8 6 -10 10 -10 16 -1z
m-207 -34 c18 -11 27 -23 24 -32 -3 -7 -1 -19 4 -25 9 -11 14 -44 12 -81 -1
-18 -9 -21 -87 -23 -84 -3 -86 -2 -81 18 4 16 2 19 -7 11 -9 -8 -13 -7 -14 2
0 6 -3 24 -6 40 -7 28 5 60 32 87 12 11 16 12 20 2 2 -6 11 -12 20 -12 14 0
14 2 3 9 -11 7 -10 10 5 14 35 9 46 7 75 -10z m-1668 -43 c-3 -10 -11 -21 -19
-24 -11 -4 -12 -2 -4 14 15 27 13 30 -17 31 l-28 1 25 7 c31 10 50 -3 43 -29z
m1407 -6 c0 -2 -9 -4 -20 -4 -11 0 -20 4 -20 9 0 5 9 7 20 4 11 -3 20 -7 20
-9z m-20 -24 c8 -5 11 -10 5 -10 -5 0 -17 5 -25 10 -8 5 -10 10 -5 10 6 0 17
-5 25 -10z m-1375 -24 c10 -10 11 -16 2 -25 -17 -17 -25 -13 -23 14 1 29 3 30
21 11z m1455 -16 c0 -5 -8 -10 -17 -10 -15 0 -16 2 -3 10 19 12 20 12 20 0z
m1217 -146 c-3 -3 -12 -4 -19 -1 -8 3 -5 6 6 6 11 1 17 -2 13 -5z m3132 -76
c-3 -27 2 -38 16 -38 8 0 15 -4 15 -10 0 -5 5 -10 11 -10 6 0 9 7 5 15 -4 10
1 15 14 15 23 0 25 -15 7 -49 -9 -18 -22 -25 -52 -28 -22 -2 -50 -9 -63 -15
-14 -8 -26 -8 -30 -3 -4 6 -26 11 -49 11 -40 2 -42 1 -32 -18 6 -11 9 -22 7
-24 -7 -6 -111 -24 -116 -20 -2 3 18 16 45 30 27 14 40 25 30 26 -19 0 -18 7
4 67 14 37 193 85 188 51z m-3279 -57 c0 -6 -4 -13 -10 -16 -5 -3 -10 1 -10 9
0 9 5 16 10 16 6 0 10 -4 10 -9z m76 -14 c4 -28 -13 -29 -19 -1 -2 14 0 23 6
21 6 -2 11 -11 13 -20z m-2636 -267 c0 -5 -4 -10 -10 -10 -5 0 -10 5 -10 10 0
6 5 10 10 10 6 0 10 -4 10 -10z m2227 -61 c9 -9 6 -17 -12 -30 -25 -20 -50
-26 -40 -9 3 6 -3 10 -14 10 -12 0 -21 4 -21 9 0 11 29 23 40 16 5 -3 11 -1
15 5 8 13 18 13 32 -1z m43 -90 c0 -14 -5 -19 -17 -17 -10 2 -23 -3 -29 -11
-9 -12 -14 -11 -33 8 -12 12 -27 19 -34 15 -9 -5 -9 -4 0 6 11 11 17 11 39 -1
20 -10 28 -11 31 -2 2 7 11 9 20 6 11 -4 14 -2 9 5 -4 7 -2 12 3 12 6 0 11 -9
11 -21z m203 -81 c-16 -16 -29 -24 -32 -17 -4 13 41 58 52 52 5 -3 -4 -18 -20
-35z m-43 -78 c0 -5 -4 -10 -10 -10 -5 0 -10 5 -10 10 0 6 5 10 10 10 6 0 10
-4 10 -10z m-2550 -26 c0 -8 -5 -12 -10 -9 -6 4 -8 11 -5 16 9 14 15 11 15 -7z
m3966 -51 c7 -10 14 -33 14 -51 0 -18 5 -42 10 -53 9 -16 6 -22 -24 -40 -19
-11 -46 -35 -60 -54 -19 -24 -31 -32 -46 -28 -11 3 -17 9 -15 14 3 4 0 17 -6
27 -10 15 -9 30 4 70 10 28 17 60 17 71 0 24 28 41 65 41 15 0 24 4 20 10 -11
17 7 11 21 -7z m-3966 -1 c0 -13 -12 -22 -22 -16 -10 6 -1 24 13 24 5 0 9 -4
9 -8z m-43 -8 c-3 -3 -12 -4 -19 -1 -8 3 -5 6 6 6 11 1 17 -2 13 -5z m-33 -34
c-21 -8 -37 -3 -29 10 3 4 15 6 27 2 21 -5 21 -6 2 -12z m3584 13 c-9 -2 -19
-12 -21 -21 -3 -12 -5 -10 -6 6 -1 17 4 22 22 21 15 -1 17 -3 5 -6z m1895 -43
c14 -11 30 -20 37 -20 15 0 8 -22 -11 -31 -35 -17 -122 -31 -157 -23 -20 4
-47 6 -59 5 -15 -2 -23 3 -23 13 0 9 -8 16 -17 17 -14 0 -13 2 4 9 12 5 31 18
42 29 30 30 147 30 184 1z m-5510 -147 c4 -20 2 -35 -5 -39 -7 -5 -9 -2 -5 9
8 20 -18 36 -47 30 -18 -4 -16 0 9 21 33 28 40 25 48 -21z m63 -88 c3 -14 10
-25 14 -25 13 0 8 -49 -6 -54 -8 -3 -14 -12 -14 -21 0 -8 -5 -15 -11 -15 -6 0
-9 9 -6 20 6 25 -10 90 -23 90 -6 0 -10 7 -10 15 0 9 9 15 25 15 18 0 26 -7
31 -25z m-139 -27 c-3 -8 -6 -5 -6 6 -1 11 2 17 5 13 3 -3 4 -12 1 -19z m43
-98 c0 -5 -5 -10 -11 -10 -5 0 -7 5 -4 10 3 6 8 10 11 10 2 0 4 -4 4 -10z
m2400 -70 c8 -5 11 -10 5 -10 -5 0 -17 5 -25 10 -8 5 -10 10 -5 10 6 0 17 -5
25 -10z m-2360 -27 c0 -8 -5 -13 -12 -11 -18 6 -21 25 -3 25 8 0 15 -7 15 -14z
m75 -24 c9 -27 -4 -39 -16 -16 -6 9 -18 17 -27 18 -14 0 -13 2 3 9 30 13 33
12 40 -11z m95 -50 c0 -4 -7 -6 -15 -3 -8 4 -15 10 -15 15 0 4 7 6 15 3 8 -4
15 -10 15 -15z m-435 -69 c10 -11 16 -20 13 -20 -3 0 -13 9 -23 20 -10 11 -16
20 -13 20 3 0 13 -9 23 -20z m455 10 c0 -5 -4 -10 -10 -10 -5 0 -10 5 -10 10
0 6 5 10 10 10 6 0 10 -4 10 -10z m-37 -17 c-7 -2 -19 -2 -25 0 -7 3 -2 5 12
5 14 0 19 -2 13 -5z m-183 -34 c0 -5 -7 -9 -15 -9 -9 0 -15 9 -15 21 0 18 2
19 15 9 8 -7 15 -16 15 -21z m-175 -9 c3 -5 2 -10 -4 -10 -5 0 -13 5 -16 10
-3 6 -2 10 4 10 5 0 13 -4 16 -10z m438 -24 c9 -5 17 -13 17 -18 0 -6 -6 -6
-15 2 -8 6 -23 9 -33 6 -12 -4 -22 -1 -25 7 -5 14 26 16 56 3z m-408 -6 c3 -5
2 -10 -4 -10 -5 0 -13 5 -16 10 -3 6 -2 10 4 10 5 0 13 -4 16 -10z m52 -30 c1
-11 -2 -20 -7 -20 -10 0 -20 26 -13 34 12 11 19 6 20 -14z m43 -4 c0 -2 -7 -6
-15 -10 -8 -3 -15 -1 -15 4 0 6 7 10 15 10 8 0 15 -2 15 -4z m360 -41 c13 -16
0 -21 -15 -6 -6 5 -19 11 -30 14 -16 4 -14 5 6 6 15 0 32 -6 39 -14z m-329
-12 c3 1 1 -2 -3 -7 -8 -11 -38 0 -38 14 0 7 6 8 19 1 10 -6 20 -9 22 -8z
m2584 7 c3 -5 -1 -10 -10 -10 -9 0 -13 5 -10 10 3 6 8 10 10 10 2 0 7 -4 10
-10z m-2210 -75 c19 -15 18 -15 -12 -1 -17 9 -35 21 -39 27 -8 13 21 -1 51
-26z m2 -51 c-3 -3 -12 -4 -19 -1 -8 3 -5 6 6 6 11 1 17 -2 13 -5z m43 -19 c0
-9 -6 -12 -15 -9 -8 4 -15 10 -15 15 0 5 7 9 15 9 8 0 15 -7 15 -15z m15 -61
c8 -3 15 -1 15 5 0 7 14 -2 31 -20 17 -17 27 -34 23 -38 -4 -3 -9 0 -11 7 -3
6 -11 12 -18 12 -20 0 -84 33 -85 44 0 4 7 5 15 2 8 -3 22 -9 30 -12z m110
-94 c14 -13 25 -27 25 -31 0 -5 10 -19 23 -33 48 -53 67 -80 67 -93 0 -7 4
-13 10 -13 5 0 17 -14 26 -32 9 -18 27 -41 40 -51 13 -10 24 -27 24 -37 0 -10
9 -22 21 -25 15 -5 19 -13 16 -27 -4 -14 2 -22 19 -30 17 -8 24 -18 21 -30 -4
-13 4 -23 24 -33 30 -16 36 -29 20 -40 -6 -3 -15 3 -20 14 -6 10 -23 22 -38
26 -25 6 -26 8 -10 17 17 9 17 11 -4 29 -12 10 -29 19 -37 19 -9 0 -12 6 -8
15 7 19 -14 55 -32 55 -9 0 -11 7 -7 19 4 14 -1 25 -20 37 -14 9 -25 24 -25
33 0 10 -11 24 -25 31 -15 8 -23 20 -21 27 3 8 -7 21 -22 31 -17 10 -26 24
-24 35 2 9 0 17 -5 18 -4 1 -25 2 -46 3 -21 2 -43 9 -50 16 -10 10 -6 12 20 7
23 -5 33 -2 37 10 8 20 1 27 -27 29 -31 2 -67 15 -67 24 0 17 71 3 95 -20z
m2975 -6 c0 -8 -4 -12 -10 -9 -5 3 -10 13 -10 21 0 8 5 12 10 9 6 -3 10 -13
10 -21z m-1735 -44 c3 -5 -1 -10 -9 -10 -9 0 -16 5 -16 10 0 6 4 10 9 10 6 0
13 -4 16 -10z m1755 -16 c0 -8 -5 -12 -10 -9 -6 4 -8 11 -5 16 9 14 15 11 15
-7z m-860 -17 c0 -16 -38 -39 -50 -32 -16 10 -11 26 7 23 10 -2 18 3 19 10 3
22 4 23 14 17 6 -3 10 -12 10 -18z m-2104 -43 c17 -14 17 -15 1 -10 -10 3 -23
6 -28 6 -5 0 -9 5 -9 10 0 14 13 12 36 -6z m1494 -15 c0 -5 -4 -9 -10 -9 -5 0
-10 7 -10 16 0 8 5 12 10 9 6 -3 10 -10 10 -16z m-1445 -49 c19 -8 19 -9 -2
-9 -12 -1 -25 4 -28 9 -7 12 2 12 30 0z m2972 3 c-4 -3 7 -14 23 -24 35 -22
40 -49 9 -49 -18 0 -19 -2 -5 -15 8 -8 20 -15 26 -15 7 0 9 -7 6 -16 -3 -9 -6
-20 -6 -25 0 -5 -4 -9 -9 -9 -14 0 -53 68 -46 80 4 6 -1 22 -10 36 -16 25 -13
44 7 44 6 0 8 -3 5 -7z m-1050 -9 c-3 -3 -12 -4 -19 -1 -8 3 -5 6 6 6 11 1 17
-2 13 -5z m-1874 -61 c-7 -2 -19 -2 -25 0 -7 3 -2 5 12 5 14 0 19 -2 13 -5z
m840 -60 c-7 -2 -21 -2 -30 0 -10 3 -4 5 12 5 17 0 24 -2 18 -5z m2138 -41
c24 -20 21 -56 -4 -46 -12 4 -37 45 -37 59 0 11 19 4 41 -13z m5 -68 c21 -5
29 -26 38 -90 1 -11 6 -26 11 -34 5 -8 10 -21 12 -30 1 -8 5 -31 9 -50 l6 -35
-32 30 c-17 17 -36 38 -41 48 -9 16 -7 17 18 11 l28 -7 -33 36 c-26 26 -32 40
-27 56 4 14 0 31 -9 46 -17 26 -15 28 20 19z m-2738 -56 c7 -7 12 -20 12 -29
0 -9 9 -19 20 -22 14 -4 20 -14 20 -32 0 -15 8 -34 18 -41 16 -12 15 -13 -8
-13 -24 0 -107 58 -84 59 6 0 17 -7 24 -15 15 -18 30 -19 30 -2 0 6 -23 28
-51 47 -58 39 -68 51 -39 45 11 -2 22 0 25 6 8 12 19 11 33 -3z m2786 -178
c36 -22 52 -45 36 -55 -10 -6 -80 52 -80 66 0 13 5 12 44 -11z m-2687 -36 c5
-15 -43 -6 -57 11 -8 10 -4 11 22 6 17 -4 33 -11 35 -17z m2683 -34 c8 -11 22
-20 32 -20 12 0 18 -8 18 -21 0 -16 -4 -19 -22 -14 -27 8 -58 41 -58 61 0 20
13 17 30 -6z m-2681 -35 c10 3 24 -1 31 -10 11 -13 8 -15 -22 -15 -24 0 -41 7
-56 25 -31 36 -27 56 4 22 17 -18 32 -26 43 -22z m2686 -46 c4 -5 18 -14 31
-19 24 -9 34 -40 13 -40 -23 0 -69 35 -69 52 0 20 15 24 25 7z m-2700 -25 c7
-10 27 -17 45 -18 45 -1 51 -24 7 -24 -27 0 -40 7 -56 29 -12 16 -19 29 -15
29 4 0 12 -7 19 -16z m2702 -55 c6 -6 21 -16 34 -23 12 -6 24 -17 27 -25 4
-11 -2 -12 -24 -7 -36 9 -50 21 -57 46 -6 22 3 26 20 9z m-2589 -63 c10 -9 12
-16 5 -16 -7 0 -15 5 -18 10 -4 7 -13 6 -26 -1 -20 -10 -49 2 -49 21 0 13 72
3 88 -14z m2601 -23 c5 -10 18 -18 28 -18 10 0 19 -8 21 -18 3 -16 0 -18 -20
-12 -30 9 -58 34 -58 52 0 19 17 16 29 -4z m-2612 -48 c28 7 53 -9 53 -33 0
-13 -2 -13 -18 1 -11 10 -26 14 -41 10 -25 -7 -51 17 -51 46 0 11 5 8 16 -8
12 -17 22 -21 41 -16z m2613 -29 c6 -8 21 -16 33 -18 28 -4 36 -38 10 -38 -26
0 -59 25 -66 50 -6 23 5 26 23 6z m-2580 -78 c0 -13 -26 -9 -37 5 -6 6 -13 20
-16 30 -6 15 -2 14 23 -5 17 -12 30 -25 30 -30z m50 6 c0 -8 -6 -14 -14 -14
-16 0 -39 24 -30 32 10 10 44 -4 44 -18z m2536 -14 c6 -6 21 -12 34 -15 29 -6
34 -11 27 -29 -5 -13 -12 -14 -34 -5 -36 13 -53 28 -53 45 0 17 12 18 26 4z
m-2586 -37 c0 -5 4 -14 9 -22 8 -12 12 -12 25 -2 19 16 46 7 46 -15 0 -12 -5
-14 -17 -9 -10 4 -27 7 -38 7 -23 -1 -45 15 -45 34 0 14 20 20 20 7z m2621
-58 c29 -6 43 -20 35 -34 -8 -12 -53 -5 -73 12 -7 5 -13 18 -13 29 0 16 3 18
14 9 8 -7 24 -14 37 -16z m-2581 -35 c0 -22 7 -25 30 -10 17 10 50 -14 50 -37
0 -12 -4 -11 -22 1 -12 9 -33 16 -45 16 -12 0 -27 9 -33 19 -13 26 -13 31 5
31 8 0 15 -9 15 -20z m2560 -35 c7 -9 22 -14 34 -13 15 2 22 -3 24 -19 3 -23
-12 -31 -23 -13 -3 6 -17 10 -30 10 -21 0 -35 17 -35 41 0 14 16 11 30 -6z
m-2520 -50 c0 -18 -4 -23 -15 -19 -8 4 -15 15 -15 25 0 10 7 19 15 19 9 0 15
-9 15 -25z m71 -36 c7 -14 6 -19 -3 -19 -20 1 -51 28 -44 39 9 14 34 3 47 -20z
m2454 1 c4 -6 14 -10 23 -9 32 3 42 -1 42 -15 0 -22 -13 -26 -52 -15 -22 6
-38 17 -41 29 -5 21 17 29 28 10z m-2485 -40 c6 -11 18 -20 26 -20 20 0 40
-20 49 -50 6 -21 5 -23 -6 -12 -7 6 -19 12 -26 12 -20 0 -4 -28 20 -34 12 -3
28 -15 35 -27 12 -18 11 -23 -5 -35 -23 -17 -52 -19 -35 -2 9 9 5 19 -19 44
-26 27 -29 35 -20 52 11 21 3 33 -31 45 -10 4 -18 16 -18 27 0 26 16 26 30 0z
m2515 -45 c11 -1 23 -3 28 -4 4 0 7 -10 7 -22 0 -15 -5 -19 -17 -16 -10 3 -30
8 -45 11 -20 5 -28 13 -28 27 0 16 4 19 18 14 9 -4 26 -8 37 -10z m-20 -75 c4
-6 15 -8 24 -5 22 7 49 -21 35 -35 -16 -16 -81 7 -87 30 -5 21 17 29 28 10z
m-2359 -95 c21 -21 17 -40 -11 -43 -18 -1 -23 2 -19 13 4 8 1 15 -5 15 -5 0
-15 10 -22 21 -10 20 -9 21 16 15 15 -4 34 -13 41 -21z m2379 11 c48 -17 55
-43 10 -38 -35 4 -55 18 -55 38 0 17 -4 17 45 0z m15 -81 c17 -1 26 -8 28 -23
3 -20 0 -21 -30 -16 -32 6 -58 27 -58 47 0 5 8 6 18 2 9 -5 28 -9 42 -10z
m-2350 -22 l22 -28 -22 -3 c-21 -3 -70 32 -70 50 0 20 50 6 70 -19z m2359 -63
c14 0 21 -6 21 -20 0 -17 -5 -19 -32 -13 -38 7 -63 26 -54 42 5 8 13 8 26 1
10 -5 28 -10 39 -10z m-2315 -22 c21 -29 20 -38 -3 -38 -20 0 -71 36 -71 51 0
19 59 9 74 -13z m2281 -58 c3 -5 12 -7 20 -3 22 8 45 -4 39 -20 -7 -20 -78 -7
-82 16 -4 18 13 24 23 7z m-2248 -26 c7 -7 18 -14 25 -17 9 -3 10 -8 2 -16
-20 -22 -94 19 -94 52 0 9 55 -7 67 -19z m2243 -54 c0 -5 13 -7 30 -3 26 5 30
3 30 -16 0 -21 -13 -22 -67 -5 -15 4 -17 34 -3 34 6 0 10 -4 10 -10z m-2200
-29 c22 -4 36 -13 38 -24 5 -24 -34 -22 -75 3 -35 21 -46 48 -15 35 9 -4 33
-11 52 -14z m2204 -50 c3 -4 17 -6 31 -3 20 3 25 0 25 -16 0 -15 -6 -19 -28
-17 -36 2 -52 12 -52 31 0 15 16 19 24 5z m-2131 -37 c32 -10 18 -31 -21 -32
-30 -1 -44 4 -61 24 l-23 26 44 -7 c24 -3 51 -9 61 -11z m2127 -44 c0 -5 13
-7 30 -3 23 4 30 2 30 -10 0 -22 -12 -27 -46 -18 -27 7 -48 41 -25 41 6 0 11
-4 11 -10z m-2101 -34 c22 -1 35 -6 36 -16 2 -11 -7 -15 -34 -14 -55 1 -59 2
-72 25 -10 19 -9 20 13 13 12 -4 38 -7 57 -8z m1357 -10 c8 -8 14 -21 14 -29
0 -9 20 -35 45 -58 49 -47 148 -189 160 -229 4 -14 14 -41 22 -60 28 -65 32
-75 45 -115 7 -22 21 -56 32 -75 53 -98 77 -173 75 -243 -1 -37 3 -73 9 -79
19 -19 3 -38 -24 -28 -32 13 -30 3 12 -50 48 -61 66 -106 62 -160 -3 -44 -2
-45 30 -48 26 -3 32 -8 32 -27 0 -13 3 -30 6 -39 4 -12 0 -16 -15 -16 -14 0
-21 6 -21 20 0 12 -7 20 -16 20 -23 0 -221 101 -250 128 -14 12 -38 29 -54 37
-16 8 -30 25 -32 37 -6 41 -25 30 -33 -18 -9 -61 -22 -94 -36 -94 -8 0 -8 4
-2 13 11 14 35 128 29 135 -3 2 -21 -1 -40 -8 -36 -12 -36 -12 -36 -70 0 -42
-6 -71 -21 -96 -17 -32 -19 -41 -8 -61 7 -13 16 -23 21 -23 5 0 6 -5 3 -11 -5
-7 -14 -3 -26 10 -26 28 -37 26 -84 -14 -35 -30 -37 -35 -18 -35 12 0 44 5 72
12 47 11 73 7 58 -9 -4 -3 -50 -12 -104 -19 -53 -8 -106 -21 -117 -29 -92 -67
-124 -78 -163 -57 -28 15 -31 36 -5 28 24 -8 78 15 121 51 34 29 34 29 16 56
-9 15 -24 44 -31 65 l-14 37 3 -50 c2 -27 7 -58 12 -69 6 -14 4 -17 -9 -15
-18 4 -37 32 -58 84 -10 27 -12 28 -15 9 -2 -12 0 -37 5 -55 10 -39 -8 -84
-36 -91 -24 -7 -85 14 -80 27 1 6 14 11 28 11 89 4 82 1 64 29 -11 18 -17 48
-17 93 -1 68 9 97 65 196 20 36 20 42 8 85 -7 25 -15 63 -18 85 -2 21 -13 47
-23 57 -11 11 -19 28 -19 39 0 17 -4 19 -26 14 -31 -8 -44 7 -44 52 0 19 8 38
21 50 34 31 49 70 49 130 0 47 5 62 29 93 38 48 46 66 61 131 7 30 17 62 21
70 4 8 14 31 23 50 23 54 82 108 124 116 21 4 44 10 52 15 23 13 50 11 66 -5z
m775 -39 c21 4 29 2 29 -8 0 -23 -16 -43 -24 -30 -4 6 -15 11 -25 11 -21 0
-44 23 -34 34 4 3 11 2 16 -3 6 -6 23 -7 38 -4z m-2053 -51 c3 -12 0 -16 -7
-11 -7 4 -18 1 -26 -5 -18 -15 -52 -4 -65 20 -9 18 -6 19 42 17 43 -2 53 -6
56 -21z m2072 -46 c0 -22 -16 -35 -25 -20 -3 5 -14 10 -25 10 -10 0 -20 6 -23
13 -3 9 7 13 34 14 32 2 39 -1 39 -17z m-2063 -11 c34 1 43 -2 43 -14 0 -10
-7 -15 -17 -13 -10 2 -23 -3 -29 -10 -14 -19 -49 -1 -57 28 -3 13 -1 18 6 13
6 -3 30 -6 54 -4z m2013 -61 c0 14 36 16 45 2 3 -5 2 -16 -2 -23 -7 -12 -13
-12 -41 0 -19 8 -30 18 -26 24 4 8 9 7 15 -2 6 -10 9 -11 9 -1z m-1920 -33 c0
-19 -77 -30 -95 -15 -22 18 -18 29 6 25 12 -3 29 -1 37 4 20 11 52 2 52 -14z
m1955 -98 c-8 -78 -13 -85 -36 -56 -26 34 -23 49 8 49 l26 0 -21 23 c-27 28
-28 44 -4 50 29 6 33 -3 27 -66z m-1916 34 c17 -11 4 -34 -15 -27 -8 3 -14 1
-14 -5 0 -19 -55 -5 -58 15 -2 10 0 16 5 13 4 -2 17 -1 28 4 27 10 37 10 54 0z
m3 -101 c5 0 8 7 8 16 0 26 44 13 48 -14 3 -22 2 -23 -19 -11 -17 9 -24 9 -27
0 -5 -16 -22 -14 -44 6 -25 23 -23 37 4 19 12 -9 26 -16 30 -16z m1898 -37 c0
-10 -5 -25 -10 -33 -8 -13 -11 -12 -24 5 -22 29 -19 45 9 45 17 0 25 -5 25
-17z m-1857 -52 c-6 -9 -53 31 -47 40 3 6 15 1 28 -13 12 -13 21 -25 19 -27z
m53 31 c6 -4 13 -15 17 -24 5 -14 2 -15 -24 -6 -16 5 -29 16 -29 24 0 15 18
18 36 6z m1779 -134 c-8 -51 -18 -101 -21 -111 -8 -25 -27 -16 -39 17 -8 23
-6 30 10 42 17 12 18 17 7 35 -14 22 -8 39 14 39 18 0 18 10 -2 38 -12 18 -13
23 -2 26 34 11 43 13 46 11 2 -2 -4 -45 -13 -97z m-1787 47 c10 -21 9 -23 -6
-18 -26 9 -42 24 -36 34 10 17 31 9 42 -16z m63 5 c10 -6 19 -17 19 -24 0 -12
-6 -12 -30 -3 -16 6 -30 17 -30 24 0 16 15 17 41 3z m-23 -62 c19 -19 14 -37
-8 -31 -11 3 -20 14 -20 24 0 22 11 24 28 7z m82 -23 c31 -33 21 -40 -24 -19
-28 14 -33 20 -25 31 16 18 22 17 49 -12z m-20 -56 c0 -6 8 -9 18 -6 23 5 72
-20 72 -37 0 -16 -33 -11 -64 10 -10 7 -24 10 -31 7 -8 -2 -18 5 -25 16 -9 18
-8 21 10 21 11 0 20 -5 20 -11z m1644 -47 c8 -13 -29 -135 -41 -139 -6 -2 -13
11 -17 28 -6 31 0 42 29 52 6 2 4 10 -4 20 -7 9 -11 24 -7 32 6 16 31 20 40 7z
m-1565 -32 c6 0 26 -7 42 -16 31 -16 35 -41 6 -36 -31 5 -7 -23 33 -40 40 -16
54 -38 25 -38 -27 0 -16 -19 20 -34 39 -17 55 -43 34 -57 -18 -12 -29 -11 -29
1 0 5 -13 23 -30 38 -16 16 -30 36 -30 43 0 16 -26 42 -54 52 -12 5 -16 13
-12 23 8 21 -11 44 -35 44 -22 0 -31 13 -23 35 6 14 8 14 24 0 9 -8 22 -15 29
-15z m1518 -127 c4 -9 -3 -33 -16 -55 -12 -21 -19 -42 -17 -47 3 -5 -1 -14 -9
-21 -16 -13 -17 -11 -28 39 -4 17 -1 25 15 29 16 4 19 11 14 32 -3 15 -2 30 1
34 12 12 34 6 40 -11z m-1307 -133 c21 -17 23 -21 10 -29 -15 -10 -71 17 -78
38 -6 18 42 12 68 -9z m1243 -27 c3 -17 0 -34 -8 -42 -12 -12 -16 -11 -24 12
-6 15 -8 34 -5 42 10 24 31 17 37 -12z m-1181 -50 c27 -25 22 -36 -14 -29 -33
6 -58 23 -58 37 0 15 53 10 72 -8z m1145 -30 c-5 -44 -24 -55 -33 -19 -8 33 1
56 21 56 12 0 15 -9 12 -37z m4583 -43 c0 -32 -4 -40 -17 -39 -11 0 -13 3 -5
6 6 2 12 20 12 39 0 19 2 34 5 34 3 0 5 -18 5 -40z m-5657 -2 c26 -13 21 -28
-11 -28 -29 0 -72 24 -72 40 0 10 55 2 83 -12z m567 7 c-7 -8 -18 -15 -24 -15
-6 0 -2 7 8 15 25 19 32 19 16 0z m-473 -79 c12 -11 -11 -26 -40 -26 -34 0
-81 26 -72 39 4 8 103 -4 112 -13z m903 -30 c0 -13 3 -31 6 -40 4 -12 0 -16
-15 -16 -18 0 -21 6 -21 40 0 29 4 40 15 40 9 0 15 -9 15 -24z m-42 -76 c-3
-22 0 -30 10 -30 12 0 12 -3 2 -15 -16 -20 -23 -19 -38 5 -15 25 -5 70 15 70
11 0 14 -8 11 -30z m-643 -60 c0 -24 -42 -39 -81 -28 -19 5 -38 7 -43 4 -16
-10 -31 -152 -36 -346 l-5 -196 73 -16 c67 -16 78 -16 123 -2 94 29 177 2 226
-75 14 -22 15 -35 6 -81 -21 -115 -124 -199 -229 -187 -61 8 -69 12 -69 42 0
31 -52 156 -79 192 -12 15 -36 46 -53 68 l-30 40 6 110 c3 70 1 141 -7 195
-16 104 -8 233 16 257 10 10 37 18 67 20 29 1 59 7 68 13 23 13 47 8 47 -10z
m605 7 c0 -7 -7 -23 -16 -36 -16 -22 -16 -23 5 -16 11 3 21 2 21 -3 0 -12 -29
-24 -41 -16 -10 6 -12 67 -2 77 11 12 33 8 33 -6z m-520 -42 c0 -3 -11 -16
-25 -29 -27 -25 -75 -25 -96 0 -9 12 -5 14 25 14 20 0 36 5 36 10 0 6 14 10
30 10 17 0 30 -2 30 -5z m470 -16 c0 -6 -5 -19 -11 -31 -13 -25 -5 -35 16 -18
8 7 15 8 15 3 0 -5 -24 -32 -54 -62 -43 -42 -62 -54 -96 -58 -34 -5 -42 -3
-38 8 3 8 16 16 29 19 71 16 125 68 99 94 -14 14 -12 22 6 40 18 18 34 21 34
5z m-400 -24 c0 -3 -7 -17 -16 -30 -10 -16 -12 -25 -5 -26 38 -4 46 -2 46 11
0 9 11 16 28 18 15 2 27 -1 27 -7 0 -6 -4 -11 -9 -11 -5 0 -11 -11 -13 -25 -5
-23 -2 -25 33 -25 21 0 41 -4 44 -10 3 -5 19 -10 34 -10 27 0 51 -16 51 -33 0
-13 -100 -1 -114 13 -5 5 -20 10 -32 10 -12 0 -27 7 -34 15 -7 8 -21 15 -31
15 -11 0 -27 8 -38 19 -10 10 -35 21 -55 25 -43 8 -44 33 -2 28 16 -2 29 3 32
13 6 13 54 23 54 10z m340 -45 c-12 -22 -40 -27 -40 -7 0 19 10 27 32 27 16 0
17 -3 8 -20z m-190 -19 c0 -9 -24 -21 -41 -21 -5 0 -9 7 -9 15 0 9 9 15 25 15
14 0 25 -4 25 -9z m135 -1 c7 -12 -42 -36 -53 -26 -4 4 2 14 12 22 23 17 33
18 41 4z m-75 -20 c0 -5 -9 -10 -20 -10 -11 0 -20 5 -20 10 0 6 9 10 20 10 11
0 20 -4 20 -10z m66 -107 c-3 -3 -13 0 -21 7 -13 10 -13 15 -3 21 13 8 35 -17
24 -28z m5128 -406 c5 -27 4 -37 -3 -32 -6 3 -11 0 -11 -7 0 -9 -3 -9 -10 2
-13 20 -13 53 0 45 6 -3 10 4 10 16 0 31 6 21 14 -24z m-4984 -11 c0 -2 -18
-6 -40 -8 -22 -2 -40 0 -40 4 0 5 18 8 40 8 22 0 40 -2 40 -4z m8 -97 c12 -5
22 -11 22 -14 0 -8 -51 6 -80 21 l-25 14 30 -6 c17 -4 40 -11 53 -15z m97 1
c-3 -5 -18 -10 -33 -9 -24 0 -25 1 -7 9 28 12 47 12 40 0z m-1760 -290 c-11
-5 -36 -9 -55 -9 -28 0 -31 2 -15 9 11 5 36 9 55 9 28 0 31 -2 15 -9z m-95
-10 c0 -5 -8 -10 -17 -10 -15 0 -16 2 -3 10 19 12 20 12 20 0z m-232 -312 c2
-100 0 -163 -7 -182 -6 -16 -13 -27 -15 -25 -4 4 -10 296 -7 354 1 22 4 26 13
17 7 -7 13 -67 16 -164z m-7833 -78 c3 -5 1 -10 -4 -10 -6 0 -11 5 -11 10 0 6
2 10 4 10 3 0 8 -4 11 -10z m125 -19 c0 -13 -26 -32 -33 -24 -14 13 -6 33 13
33 11 0 20 -4 20 -9z m14484 -48 c-27 -27 -39 -32 -47 -24 -9 9 -6 13 11 17
12 4 22 12 22 20 0 15 30 35 42 28 4 -3 -8 -21 -28 -41z m-14594 5 c0 -18 -2
-20 -9 -8 -6 8 -7 18 -5 22 9 14 14 9 14 -14z m14640 -41 c0 -16 -24 -39 -57
-56 -26 -13 -31 0 -8 23 8 8 15 19 15 25 0 8 16 16 43 20 4 0 7 -5 7 -12z
m330 -176 c0 -6 -10 -21 -22 -35 -17 -19 -27 -23 -38 -17 -12 8 -11 14 10 35
23 26 50 34 50 17z m-490 -60 c0 -5 -7 -11 -15 -15 -9 -3 -15 0 -15 9 0 8 7
15 15 15 8 0 15 -4 15 -9z m540 -25 c0 -14 -4 -28 -10 -31 -5 -3 -10 -15 -10
-25 0 -21 -57 -73 -71 -64 -18 11 -8 50 26 97 39 52 65 61 65 23z m-90 -6 c0
-22 -50 -121 -65 -126 -8 -4 -22 -1 -30 6 -12 10 -12 17 6 51 11 22 29 49 39
59 21 21 50 27 50 10z m-158 -105 c-2 -14 -8 -25 -13 -25 -14 0 -11 38 4 43 6
3 13 6 13 6 1 1 -1 -10 -4 -24z m182 -38 c14 -10 15 -18 7 -37 -5 -14 -12 -37
-15 -51 -6 -27 -47 -56 -65 -45 -25 16 -10 87 27 129 18 20 23 21 46 4z m96
-2 c0 -2 -9 -19 -20 -37 -20 -33 -21 -33 -16 -6 3 15 7 32 11 38 6 10 25 14
25 5z m-190 -28 c0 -34 -42 -112 -64 -115 -28 -6 -34 8 -27 57 5 37 11 47 41
62 45 24 50 24 50 -4z m-130 -29 c0 -19 -18 -43 -25 -36 -4 3 -2 16 5 27 12
24 20 27 20 9z m-345 -27 c3 -5 1 -12 -5 -16 -5 -3 -10 -14 -10 -25 0 -21 -20
-31 -49 -23 -33 8 -26 36 14 60 25 15 42 16 50 4z m-3623 -68 c56 -57 68 -86
68 -162 0 -52 -3 -60 -32 -88 -18 -16 -40 -33 -48 -37 -8 -3 -42 -24 -75 -46
-68 -45 -107 -65 -150 -76 -24 -5 -62 -25 -85 -44 -14 -11 -36 -21 -49 -23
-13 -2 -29 -10 -35 -19 -6 -8 -33 -20 -59 -27 -50 -12 -86 -31 -122 -64 -11
-10 -38 -28 -59 -39 -37 -19 -45 -19 -113 -8 -40 7 -93 10 -118 7 -30 -5 -44
-3 -40 3 9 15 -23 24 -39 11 -7 -6 -27 -10 -44 -9 -17 1 -42 -4 -56 -11 -20
-11 -28 -11 -40 -2 -13 11 -11 19 8 62 13 27 35 61 50 76 l27 26 29 -22 c22
-16 30 -18 30 -7 0 18 22 26 76 26 39 0 101 17 144 39 9 5 30 12 47 15 17 4
39 16 49 27 9 10 23 19 31 19 7 0 13 4 13 10 0 16 148 160 165 160 9 0 18 7
21 15 4 8 34 28 68 44 77 35 188 107 241 155 22 20 42 36 45 36 3 0 27 -21 52
-47z m4146 -37 c-3 -23 -44 -47 -65 -39 -9 4 -11 13 -7 27 8 26 23 36 52 33
17 -1 22 -7 20 -21z m-113 -7 c8 -12 -23 -49 -41 -49 -22 0 -27 21 -8 41 19
21 39 25 49 8z m-3658 -116 c-2 -21 -4 -6 -4 32 0 39 2 55 4 38 2 -18 2 -50 0
-70z m3730 42 c3 -9 -3 -25 -12 -35 -15 -17 -16 -24 -7 -46 7 -14 8 -23 3 -20
-4 3 -14 -20 -20 -52 -7 -38 -8 -58 -1 -60 15 -5 12 -23 -7 -44 -11 -12 -19
-44 -23 -91 l-5 -72 -13 90 c-12 90 -10 109 23 270 14 66 47 98 62 60z m-104
-28 c-3 -12 -10 -28 -16 -34 -5 -7 -6 -20 -3 -29 4 -9 0 -27 -8 -39 -16 -25
-24 -94 -13 -112 9 -14 -19 -37 -33 -28 -6 4 -8 16 -4 28 4 12 11 49 15 82 17
122 21 140 36 152 21 17 32 8 26 -20z m-55 -357 c0 -22 -4 -42 -8 -45 -12 -7
-17 64 -6 75 14 14 15 14 14 -30z m-5368 -48 c-7 -13 -9 -8 -9 23 0 35 1 37
10 17 6 -15 5 -30 -1 -40z m1127 -107 c0 -8 -4 -15 -9 -15 -4 0 -8 -4 -8 -10
0 -5 18 -10 41 -10 37 0 40 2 34 21 -5 15 -4 19 4 15 6 -4 12 -17 12 -29 1
-17 2 -18 6 -4 2 9 9 17 14 17 15 0 10 -33 -9 -56 -27 -33 -65 -54 -108 -58
-57 -6 -84 -16 -84 -33 0 -9 -6 -12 -18 -9 -12 4 -26 -1 -37 -14 -10 -11 -31
-20 -46 -20 -15 0 -34 -7 -43 -15 -35 -35 -71 -9 -61 44 6 33 25 52 82 81 26
14 50 28 53 32 3 4 23 11 45 16 55 13 115 40 115 52 0 6 4 10 8 10 5 0 9 -7 9
-15z m4353 -26 c0 -20 -15 -26 -25 -9 -9 15 3 43 15 35 5 -3 10 -15 10 -26z
m-10230 -89 c0 -5 -2 -10 -4 -10 -2 0 -12 -3 -22 -7 -16 -6 -17 -5 -4 10 17
19 30 22 30 7z m10240 -19 c0 -10 7 -24 15 -31 20 -16 19 -49 0 -57 -9 -3 -18
-3 -22 0 -8 9 -22 90 -17 99 9 15 24 8 24 -11z m-5620 -41 c0 -5 -9 -10 -20
-10 -11 0 -20 5 -20 10 0 6 9 10 20 10 11 0 20 -4 20 -10z m-4660 -10 c0 -5
-2 -10 -4 -10 -3 0 -8 5 -11 10 -3 6 -1 10 4 10 6 0 11 -4 11 -10z m10200 -30
c0 -11 -2 -20 -5 -20 -2 0 -9 9 -15 20 -9 16 -8 20 5 20 8 0 15 -9 15 -20z
m118 -99 c3 -16 -1 -22 -10 -19 -7 3 -15 15 -16 27 -3 16 1 22 10 19 7 -3 15
-15 16 -27z m-98 -11 c0 -5 -2 -10 -4 -10 -3 0 -8 5 -11 10 -3 6 -1 10 4 10 6
0 11 -4 11 -10z m-13300 -41 c0 -23 -27 -36 -42 -21 -14 14 8 53 27 46 8 -4
15 -15 15 -25z m157 -85 c-3 -3 -12 -4 -19 -1 -8 3 -5 6 6 6 11 1 17 -2 13 -5z"/>
<path d="M6517 10404 c-4 -4 -7 -14 -7 -23 0 -11 3 -12 11 -4 6 6 10 16 7 23
-2 6 -7 8 -11 4z"/>
<path d="M6510 10270 c0 -11 2 -20 4 -20 2 0 6 9 9 20 3 11 1 20 -4 20 -5 0
-9 -9 -9 -20z"/>
<path d="M6520 10226 c0 -9 5 -16 10 -16 6 0 10 4 10 9 0 6 -4 13 -10 16 -5 3
-10 -1 -10 -9z"/>
<path d="M6530 10180 c0 -5 5 -10 10 -10 6 0 10 5 10 10 0 6 -4 10 -10 10 -5
0 -10 -4 -10 -10z"/>
<path d="M6580 10161 c0 -5 7 -14 15 -21 13 -10 15 -9 15 9 0 12 -6 21 -15 21
-8 0 -15 -4 -15 -9z"/>
<path d="M8735 10290 c-3 -5 -1 -10 4 -10 6 0 11 5 11 10 0 6 -2 10 -4 10 -3
0 -8 -4 -11 -10z"/>
<path d="M8737 10153 c8 -3 11 -15 7 -31 -4 -23 -4 -25 6 -9 14 21 6 47 -12
46 -10 0 -10 -2 -1 -6z"/>
<path d="M8726 10005 c-9 -26 -7 -32 5 -12 6 10 9 21 6 23 -2 3 -7 -2 -11 -11z"/>
<path d="M8746 9983 c-6 -14 -5 -15 5 -6 7 7 10 15 7 18 -3 3 -9 -2 -12 -12z"/>
<path d="M6785 10150 c-3 -5 -1 -10 4 -10 6 0 11 5 11 10 0 6 -2 10 -4 10 -3
0 -8 -4 -11 -10z"/>
<path d="M6740 9320 c0 -5 5 -10 11 -10 5 0 7 5 4 10 -3 6 -8 10 -11 10 -2 0
-4 -4 -4 -10z"/>
<path d="M8925 9090 c4 -6 11 -8 16 -5 14 9 11 15 -7 15 -8 0 -12 -5 -9 -10z"/>
<path d="M8531 9061 c-8 -5 -9 -11 -3 -15 5 -3 12 1 16 9 6 17 6 18 -13 6z"/>
<path d="M8550 8931 c0 -5 -8 -12 -17 -14 -14 -4 -13 -5 4 -6 24 -1 39 14 23
24 -5 3 -10 2 -10 -4z"/>
<path d="M10266 6382 c-3 -5 1 -9 9 -9 8 0 15 4 15 9 0 4 -4 8 -9 8 -6 0 -12
-4 -15 -8z"/>
<path d="M9553 4498 c-52 -56 -63 -152 -38 -353 9 -77 18 -149 21 -160 4 -23
46 -45 86 -45 15 0 28 -4 28 -10 0 -5 -3 -10 -7 -10 -28 -1 -33 -18 -22 -68 8
-40 15 -52 29 -52 29 0 79 69 100 139 28 88 26 157 -6 236 l-27 66 -46 -3
c-44 -3 -46 -4 -43 -30 3 -35 -5 -36 -18 -3 -6 16 -17 25 -31 25 -27 0 -20 24
9 28 12 2 22 8 22 13 0 9 -13 12 -42 10 -10 -1 -28 7 -40 19 l-23 21 24 20
c13 11 39 19 58 19 41 0 113 20 113 31 0 4 -20 29 -45 57 -25 27 -45 57 -45
66 0 25 -24 19 -57 -16z m107 -372 c0 -7 -9 -16 -20 -19 -14 -4 -19 -12 -18
-31 1 -14 7 -26 13 -26 6 0 24 -14 40 -30 25 -26 27 -32 15 -40 -8 -5 -22 -10
-30 -10 -8 0 -24 -3 -35 -5 -11 -3 -26 -1 -34 4 -26 17 6 43 42 35 20 -4 27
-3 23 5 -4 6 -20 11 -35 11 -32 0 -44 9 -32 24 14 18 19 55 9 58 -16 6 21 38
43 38 10 0 19 -6 19 -14z"/>
<path d="M9633 4333 c-7 -2 -13 -15 -13 -28 0 -19 7 -25 34 -30 40 -8 76 8 76
34 0 25 -59 40 -97 24z"/>
<path d="M6790 12583 c0 -11 -50 -33 -72 -33 -10 0 -18 -7 -18 -15 0 -8 9 -15
20 -15 11 0 20 5 20 11 0 5 4 8 9 5 5 -3 11 1 15 9 3 8 12 15 21 15 8 0 15 7
15 15 0 8 -2 15 -5 15 -3 0 -5 -3 -5 -7z"/>
<path d="M6625 12484 c-15 -8 -34 -14 -41 -14 -8 0 -14 -5 -14 -11 0 -7 -10
-9 -25 -5 -19 5 -23 3 -19 -8 4 -11 -3 -14 -30 -13 -20 1 -36 6 -36 11 0 6 -4
5 -9 -3 -5 -7 -14 -10 -20 -7 -6 4 -14 0 -17 -8 -3 -9 -15 -16 -25 -16 -10 0
-19 -4 -19 -10 0 -5 -7 -10 -15 -10 -9 0 -15 -9 -15 -21 0 -18 -2 -19 -15 -9
-12 10 -19 10 -27 2 -8 -8 -7 -13 5 -18 25 -9 21 -24 -5 -21 -17 1 -23 -3 -22
-15 1 -10 -2 -18 -7 -18 -5 0 -9 -15 -10 -32 0 -28 -2 -30 -9 -13 -8 19 -9 19
-9 -2 -1 -12 -5 -25 -11 -28 -5 -3 -10 -18 -9 -33 0 -24 1 -25 9 -7 8 18 9 18
9 2 1 -18 25 -19 27 -1 2 29 18 63 30 68 10 4 12 14 8 30 -5 22 -3 24 29 21
29 -3 36 1 46 21 6 14 16 22 21 19 6 -3 10 -2 10 4 0 6 6 8 14 5 8 -3 17 -1
21 5 4 8 12 8 26 1 14 -8 19 -7 19 1 0 7 10 9 24 7 16 -3 28 2 37 14 7 10 19
18 26 18 8 0 18 11 23 24 5 13 13 27 19 31 7 4 8 -1 4 -12 -4 -11 8 -4 30 17
20 19 37 37 37 40 0 12 -38 8 -65 -6z"/>
<path d="M793 12413 c-7 -2 -13 -18 -13 -34 0 -18 -6 -32 -16 -36 -9 -3 -14
-15 -12 -29 2 -18 -12 -40 -58 -87 -70 -72 -84 -94 -84 -137 0 -44 14 -65 52
-81 18 -7 59 -35 91 -61 32 -26 66 -48 76 -48 9 0 26 -6 36 -14 14 -10 26 -11
43 -5 13 5 44 9 70 9 121 2 166 29 212 128 10 23 26 45 34 48 8 3 20 19 26 35
7 16 16 29 21 29 5 0 9 7 9 15 0 8 14 28 30 45 48 49 41 63 -47 94 -49 16 -54
17 -69 2 -18 -19 -33 -16 -106 19 -27 13 -48 19 -48 14 0 -13 -44 -11 -57 2
-21 21 -117 49 -125 36 -4 -6 -11 -8 -15 -3 -4 5 -2 11 5 13 6 3 12 13 12 23
0 25 -34 37 -67 23z"/>
<path d="M14801 12084 c0 -11 3 -14 6 -6 3 7 2 16 -1 19 -3 4 -6 -2 -5 -13z"/>
<path d="M0 11831 c0 -247 1 -260 19 -266 32 -10 69 4 64 24 -3 13 7 22 36 36
22 10 39 21 36 25 -2 4 13 16 33 28 93 53 133 159 79 210 -13 12 -33 22 -45
22 -12 0 -22 4 -22 9 0 6 -12 23 -26 38 -15 15 -33 38 -41 51 -9 12 -23 22
-33 22 -10 0 -23 7 -31 16 -7 8 -25 22 -41 30 l-28 15 0 -260z"/>
<path d="M10455 11970 c3 -5 11 -10 16 -10 6 0 7 5 4 10 -3 6 -11 10 -16 10
-6 0 -7 -4 -4 -10z"/>
<path d="M4206 11537 c-23 -55 -38 -149 -32 -196 8 -55 49 -121 76 -121 10 0
21 -4 24 -9 14 -22 79 -22 142 1 35 12 64 26 64 30 0 5 15 8 34 8 46 0 106 26
108 48 5 64 -24 135 -77 188 -30 30 -33 31 -56 17 -23 -14 -28 -13 -71 16 -25
17 -58 31 -72 31 -14 0 -26 3 -26 8 0 4 -23 8 -51 9 -48 3 -51 2 -63 -30z"/>
<path d="M3174 11550 c-19 -8 -74 -103 -74 -128 0 -7 -3 -12 -8 -12 -15 0 -32
-83 -33 -167 0 -49 -6 -110 -13 -138 -10 -43 -10 -60 6 -118 10 -37 29 -86 43
-107 14 -22 25 -44 25 -50 0 -14 37 -13 46 2 4 6 7 26 6 44 -1 31 3 36 53 60
46 23 55 32 55 54 0 24 3 26 29 22 34 -5 50 22 22 38 -21 11 -34 47 -20 55 5
4 12 20 16 36 5 17 12 30 16 29 14 -2 37 28 37 49 0 15 6 21 21 21 18 0 13 9
-32 58 -30 32 -63 76 -73 98 -10 21 -23 47 -27 56 -5 10 -9 29 -9 43 0 27 -32
65 -52 64 -7 0 -22 -4 -34 -9z"/>
<path d="M2605 11481 c-30 -17 -46 -44 -81 -131 -9 -25 -35 -82 -56 -128 -21
-45 -38 -85 -38 -89 0 -3 -16 -30 -35 -59 -41 -62 -91 -111 -143 -140 -48 -27
-72 -66 -55 -93 7 -11 15 -57 18 -103 9 -137 25 -207 75 -328 42 -103 48 -126
54 -218 l7 -103 -43 -40 c-43 -39 -66 -46 -143 -41 -35 3 -69 39 -86 92 -16
47 -27 60 -74 81 -56 26 -62 24 -87 -23 -17 -34 -22 -63 -25 -138 -4 -149 31
-223 93 -200 44 17 205 -9 289 -46 50 -22 46 -21 125 -39 65 -15 100 -13 152
7 34 13 43 52 34 141 -4 34 -2 82 3 107 50 217 51 225 51 395 0 108 5 194 14
235 18 83 41 182 68 290 l20 84 -23 94 c-21 87 -22 100 -11 189 7 52 16 102
21 111 12 25 -1 63 -29 83 -38 26 -62 29 -95 10z"/>
<path d="M65 11474 c-11 -3 -30 -7 -42 -10 -23 -4 -23 -5 -22 -202 1 -177 2
-194 15 -165 7 17 18 34 24 38 5 3 10 21 10 39 0 19 10 47 25 67 75 103 95
138 101 175 3 23 2 44 -2 47 -15 8 -88 15 -109 11z"/>
<path d="M3645 11343 c-47 -16 -115 -79 -115 -105 0 -37 -26 -111 -46 -133
-33 -35 -38 -81 -13 -116 11 -16 26 -29 34 -29 15 0 91 -121 120 -190 26 -63
116 -148 163 -155 20 -3 57 -15 81 -26 63 -29 194 -47 215 -30 9 8 16 19 16
25 0 14 -79 119 -129 171 -21 22 -46 63 -57 90 -10 28 -36 79 -58 115 -22 36
-53 94 -69 129 -28 59 -29 67 -18 105 14 48 15 86 1 100 -6 6 -10 16 -10 24 0
20 -30 42 -55 41 -11 -1 -38 -8 -60 -16z"/>
<path d="M10030 11330 c0 -5 5 -10 10 -10 6 0 10 5 10 10 0 6 -4 10 -10 10 -5
0 -10 -4 -10 -10z"/>
<path d="M490 11222 c-52 -20 -57 -25 -66 -69 -5 -28 -1 -39 35 -79 23 -26 41
-51 41 -56 0 -17 122 -168 136 -168 4 0 15 -6 23 -14 9 -8 50 -23 92 -35 71
-20 78 -20 110 -5 19 9 51 33 71 52 30 29 36 40 31 61 -3 14 -10 30 -14 36 -5
5 -9 17 -9 27 0 11 -7 18 -19 18 -11 0 -22 4 -25 8 -3 4 -27 14 -55 22 -43 12
-55 21 -96 77 -26 34 -52 63 -59 63 -7 0 -21 9 -31 20 -18 20 -94 61 -111 59
-5 0 -29 -8 -54 -17z"/>
<path d="M10450 11140 c0 -5 5 -10 10 -10 6 0 10 5 10 10 0 6 -4 10 -10 10 -5
0 -10 -4 -10 -10z"/>
<path d="M5030 10835 c-25 -7 -65 -22 -89 -34 -36 -19 -42 -26 -37 -44 3 -12
6 -39 6 -59 0 -24 8 -46 23 -62 22 -25 23 -25 93 -14 61 10 72 16 82 37 6 15
21 31 33 36 40 18 45 39 21 89 -16 31 -32 47 -54 55 -17 6 -31 10 -32 10 -1
-1 -21 -7 -46 -14z"/>
<path d="M15098 10512 c-17 -2 -28 -9 -28 -19 0 -12 8 -14 37 -10 68 11 60 37
-9 29z"/>
<path d="M3097 10472 c-9 -10 -17 -23 -17 -29 0 -5 -11 -22 -24 -36 -62 -66
-66 -79 -54 -146 l12 -62 30 7 c33 7 74 32 97 60 15 19 14 58 -5 124 -7 25
-11 50 -9 57 3 7 0 19 -4 28 -8 14 -11 14 -26 -3z"/>
<path d="M14969 10328 c0 -33 -2 -38 -9 -23 -8 19 -9 19 -9 -2 -1 -12 -5 -25
-11 -28 -20 -12 -9 -35 26 -51 30 -15 37 -15 45 -3 11 17 12 43 2 53 -4 4 -6
27 -4 51 2 40 0 45 -18 45 -18 0 -21 -6 -22 -42z"/>
<path d="M0 9874 l0 -369 25 30 c13 17 27 38 30 48 4 9 11 17 16 17 6 0 8 17
4 44 l-7 44 85 85 c47 47 90 94 95 104 12 22 0 65 -33 123 -11 19 -29 55 -39
80 -35 86 -54 115 -83 125 -15 5 -30 13 -33 17 -3 3 -18 10 -33 13 l-27 7 0
-368z"/>
<path d="M1513 10218 c-29 -38 -48 -146 -29 -165 3 -3 21 11 38 31 30 34 33
43 30 92 -4 54 -18 69 -39 42z"/>
<path d="M10215 10150 c4 -6 2 -17 -5 -24 -6 -8 -15 -29 -20 -47 -8 -26 -6
-35 8 -45 9 -6 21 -12 26 -12 5 0 12 -6 17 -14 6 -9 31 -13 78 -13 59 0 74 4
93 22 20 21 20 23 4 29 -11 4 -21 2 -26 -6 -5 -8 -10 -9 -14 -2 -4 6 -14 8
-23 5 -12 -5 -14 -3 -8 6 4 8 2 17 -6 22 -19 12 -32 11 -24 -1 13 -21 -8 -9
-27 15 -11 14 -26 25 -33 25 -9 0 -12 6 -8 16 3 9 0 20 -8 25 -19 12 -32 11
-24 -1z"/>
<path d="M9545 10090 c3 -5 8 -10 11 -10 2 0 4 5 4 10 0 6 -5 10 -11 10 -5 0
-7 -4 -4 -10z"/>
<path d="M9967 9740 c-3 -11 -1 -20 4 -20 5 0 9 9 9 20 0 11 -2 20 -4 20 -2 0
-6 -9 -9 -20z"/>
<path d="M10018 9675 c-2 -22 0 -34 6 -32 14 4 21 67 8 67 -6 0 -12 -16 -14
-35z"/>
<path d="M9970 9641 c0 -6 5 -13 10 -16 6 -3 10 1 10 9 0 9 -4 16 -10 16 -5 0
-10 -4 -10 -9z"/>
<path d="M15237 9615 c-4 -16 -17 -52 -27 -79 -11 -27 -17 -53 -14 -58 3 -5 1
-14 -4 -21 -6 -7 -13 -30 -16 -52 -4 -22 -11 -44 -16 -49 -6 -6 -10 -19 -10
-31 0 -12 -4 -25 -10 -31 -5 -5 -12 -30 -14 -54 -3 -25 -9 -65 -15 -89 -5 -25
-8 -48 -5 -52 2 -4 0 -11 -6 -14 -8 -5 -7 -11 1 -21 14 -18 30 -18 23 -1 -5
13 41 163 55 182 5 5 16 35 26 65 10 30 24 67 32 83 10 20 13 59 11 140 -2 78
-5 103 -11 82z"/>
<path d="M9930 9475 c0 -9 -8 -19 -17 -23 -13 -5 -18 -20 -20 -54 -1 -44 1
-48 23 -48 24 0 32 14 14 25 -5 3 -10 1 -10 -6 0 -7 -3 -10 -6 -7 -3 3 2 22
10 42 8 20 12 36 8 36 -3 0 -1 5 6 12 15 15 16 38 2 38 -5 0 -10 -7 -10 -15z"/>
<path d="M15239 9273 c-1 -10 -1 -24 0 -30 1 -7 -2 -13 -8 -13 -5 0 -7 -19 -5
-42 2 -26 0 -38 -5 -30 -13 22 -48 -6 -55 -42 -15 -88 -18 -97 -31 -86 -10 8
-17 0 -32 -32 -27 -58 -51 -218 -33 -218 4 0 10 -9 13 -20 3 -11 13 -20 22
-20 11 0 15 5 11 15 -3 8 -1 15 4 15 6 0 10 -13 10 -30 0 -25 -4 -29 -22 -27
-25 2 -26 -2 -29 -102 -1 -33 4 -56 11 -61 7 -4 9 -13 5 -20 -5 -9 -4 -11 4
-6 8 5 11 -25 10 -116 -4 -293 -1 -356 21 -378 11 -11 20 -31 20 -45 0 -14 5
-35 12 -48 24 -48 28 -58 40 -123 7 -38 20 -76 30 -86 17 -17 18 13 18 772 0
435 -2 790 -5 790 -3 0 -6 -8 -6 -17z m-12 -175 c-3 -8 -6 -5 -6 6 -1 11 2 17
5 13 3 -3 4 -12 1 -19z m-13 -51 c7 -6 6 -7 -4 -4 -8 2 -16 12 -17 23 -2 13
-1 15 4 4 3 -8 11 -19 17 -23z m-64 -41 c0 -3 -4 -8 -10 -11 -5 -3 -10 -1 -10
4 0 6 5 11 10 11 6 0 10 -2 10 -4z m73 -3 c-7 -2 -19 -2 -25 0 -7 3 -2 5 12 5
14 0 19 -2 13 -5z m-98 -221 c-10 -11 -30 19 -31 48 -1 20 3 30 12 30 8 0 15
12 16 28 1 15 3 -2 5 -37 2 -35 1 -66 -2 -69z"/>
<path d="M15111 8834 c0 -11 3 -14 6 -6 3 7 2 16 -1 19 -3 4 -6 -2 -5 -13z"/>
<path d="M15181 9224 c0 -11 3 -14 6 -6 3 7 2 16 -1 19 -3 4 -6 -2 -5 -13z"/>
<path d="M13971 8747 c-9 -12 -10 -25 -1 -55 9 -34 7 -49 -10 -95 -26 -69 -17
-94 43 -126 42 -23 49 -24 100 -12 59 13 127 61 127 90 0 13 2 13 9 2 7 -10
10 -11 16 -1 5 8 2 17 -8 24 -89 60 -97 68 -97 95 0 34 -17 51 -49 51 -13 0
-32 7 -41 15 -25 23 -74 29 -89 12z"/>
<path d="M4328 8703 c-26 -7 -22 -20 8 -27 45 -12 87 13 48 28 -17 6 -29 6
-56 -1z"/>
<path d="M13212 8670 c-16 -26 -15 -45 3 -60 18 -15 12 -41 -18 -84 l-20 -28
29 -24 c43 -35 61 -38 99 -14 42 26 43 36 10 79 -23 32 -23 35 -9 70 17 40 17
39 15 61 -1 11 -14 16 -49 18 -38 1 -50 -2 -60 -18z"/>
<path d="M11612 8661 c-17 -10 -18 -109 -3 -124 17 -17 13 -49 -9 -82 -25 -38
-25 -44 5 -79 14 -16 25 -25 25 -21 0 5 5 4 11 -2 17 -17 58 13 76 54 15 36 7
64 -24 82 -15 8 -15 13 -3 52 7 24 18 50 23 56 13 17 0 63 -17 63 -8 0 -16 -6
-19 -12 -3 -10 -9 -8 -24 5 -22 20 -23 20 -41 8z"/>
<path d="M10869 8593 c-20 -5 -51 -57 -44 -75 3 -7 16 -18 30 -24 28 -14 38
-1 23 30 -7 12 -7 16 0 12 12 -7 26 44 15 54 -4 3 -15 5 -24 3z"/>
<path d="M9475 8550 c-3 -5 -1 -10 4 -10 6 0 11 5 11 10 0 6 -2 10 -4 10 -3 0
-8 -4 -11 -10z"/>
<path d="M9570 8440 c0 -5 7 -10 15 -10 8 0 15 5 15 10 0 6 -7 10 -15 10 -8 0
-15 -4 -15 -10z"/>
<path d="M10823 8423 c-30 -20 -29 -36 2 -68 34 -33 59 -32 84 4 26 36 26 43
3 64 -23 21 -60 21 -89 0z"/>
<path d="M4650 8411 c-19 -4 -105 -5 -190 -4 -85 1 -184 -2 -220 -8 -36 -5
-156 -16 -267 -23 -112 -7 -206 -15 -209 -18 -3 -3 1 -16 8 -27 10 -17 21 -21
46 -19 18 1 36 -2 40 -7 4 -6 61 -11 127 -12 665 -9 746 -12 773 -27 32 -18
118 -36 169 -36 39 0 97 31 107 57 8 21 -46 79 -83 88 -14 4 -34 14 -44 23
-14 13 -41 17 -120 18 -56 0 -118 -2 -137 -5z"/>
<path d="M9317 8373 c-10 -9 -9 -33 1 -33 4 0 8 9 8 20 0 23 0 22 -9 13z"/>
<path d="M3634 8349 c-21 -24 -98 -26 -121 -4 -8 8 -18 13 -23 10 -16 -10
-105 -23 -115 -17 -5 3 -19 7 -30 8 -73 7 -92 7 -103 1 -6 -5 -20 -3 -31 2
-11 6 -39 9 -63 6 -24 -3 -74 -7 -112 -9 -38 -2 -71 -8 -75 -14 -7 -11 -290
-9 -391 2 -39 5 -107 3 -170 -5 -117 -13 -225 -14 -377 -4 -72 5 -103 4 -103
-3 0 -18 -58 -27 -169 -27 -57 0 -97 -1 -88 -3 22 -4 22 -22 0 -22 -9 0 -13
-3 -9 -7 4 -5 42 -9 84 -9 42 -1 113 -5 157 -9 92 -7 211 -7 271 1 23 3 99 1
170 -6 97 -8 156 -8 234 0 58 6 135 13 171 15 118 7 562 20 632 18 37 -1 67 3
67 8 0 5 13 9 29 9 16 0 36 6 43 13 8 8 43 12 98 11 138 -1 166 12 86 39 -42
14 -46 14 -62 -4z"/>
<path d="M9407 8345 c-4 -8 -2 -17 3 -20 6 -4 10 0 10 9 0 8 6 17 13 19 7 4 6
6 -4 6 -9 1 -19 -6 -22 -14z"/>
<path d="M83 8288 l-83 -10 0 -170 c0 -93 4 -167 9 -164 4 3 28 31 52 63 58
76 118 132 149 140 14 3 30 9 35 13 16 13 198 41 246 38 24 -1 121 2 214 7
234 11 350 9 420 -10 79 -20 208 -22 238 -2 25 16 95 41 117 42 37 1 120 30
120 42 0 16 -51 18 -67 2 -8 -8 -17 -8 -32 0 -24 13 -190 15 -441 6 -91 -3
-169 -6 -175 -5 -9 1 -157 2 -215 2 -32 0 -155 4 -350 11 -85 3 -192 1 -237
-5z"/>
<path d="M9443 8293 c-7 -2 -13 -10 -13 -16 0 -8 4 -7 12 1 16 16 26 15 31 -3
4 -12 5 -11 3 1 -1 19 -14 25 -33 17z"/>
<path d="M6787 8213 c-4 -3 -7 -18 -6 -32 1 -26 1 -25 10 3 9 31 7 41 -4 29z"/>
<path d="M9405 8201 c-3 -5 -1 -12 5 -16 5 -3 10 1 10 9 0 18 -6 21 -15 7z"/>
<path d="M13246 8074 c-9 -23 -8 -24 14 -24 13 0 20 7 20 20 0 24 -25 27 -34
4z"/>
<path d="M9207 7873 c-4 -3 -7 -11 -7 -17 0 -6 5 -5 12 2 6 6 9 14 7 17 -3 3
-9 2 -12 -2z"/>
<path d="M9128 7823 c7 -3 16 -2 19 1 4 3 -2 6 -13 5 -11 0 -14 -3 -6 -6z"/>
<path d="M15070 7801 c0 -17 2 -31 4 -31 8 0 13 51 5 56 -5 3 -9 -9 -9 -25z"/>
<path d="M15125 7730 c-4 -12 -4 -37 -1 -55 4 -20 2 -36 -4 -40 -6 -4 -8 -16
-4 -27 5 -17 3 -19 -14 -14 -24 8 -32 -18 -31 -104 1 -30 -2 -63 -6 -74 -11
-25 16 -41 33 -19 6 9 12 25 12 34 0 10 4 19 10 21 5 2 12 30 14 63 5 64 24
91 48 67 9 -9 9 -12 -4 -12 -9 0 -18 -11 -21 -27 -6 -31 0 -44 12 -25 5 8 8 1
8 -17 0 -25 -3 -28 -14 -20 -10 9 -13 2 -13 -37 0 -27 -7 -71 -16 -99 -44
-143 -73 -348 -46 -331 4 2 5 -37 2 -86 -3 -63 -1 -96 7 -108 10 -15 10 -19
-1 -23 -16 -6 -10 -58 8 -69 6 -4 11 -37 11 -77 0 -38 4 -73 9 -78 5 -5 6 -3
2 5 -5 8 3 29 19 52 15 22 28 52 28 67 1 15 4 30 7 33 14 14 40 84 40 109 0
15 7 50 15 77 12 39 15 116 15 386 0 214 -4 339 -10 343 -5 3 -10 16 -10 29 0
27 -35 62 -72 71 -21 5 -27 3 -33 -15z m2 -195 c3 -9 -1 -23 -9 -33 -9 -9 -18
-24 -22 -32 -3 -8 -4 -1 -1 15 4 17 6 38 6 48 0 21 18 23 26 2z m23 -707 c0
-13 -23 -5 -28 10 -2 7 2 10 12 6 9 -3 16 -11 16 -16z"/>
<path d="M6500 7730 c0 -5 6 -10 14 -10 8 0 18 5 21 10 3 6 -3 10 -14 10 -12
0 -21 -4 -21 -10z"/>
<path d="M9145 7729 c4 -10 0 -19 -9 -22 -10 -4 -16 -1 -16 8 0 8 -5 15 -10
15 -7 0 -7 -7 0 -20 8 -16 17 -19 33 -14 32 9 33 12 13 32 -15 15 -16 15 -11
1z"/>
<path d="M9880 7732 c0 -11 27 -42 37 -42 3 0 -2 10 -13 23 -10 12 -20 24 -21
26 -2 2 -3 -1 -3 -7z"/>
<path d="M9900 7641 c0 -5 13 -16 29 -24 25 -13 29 -13 24 -1 -9 23 -53 43
-53 25z"/>
<path d="M6510 7595 c0 -8 5 -15 10 -15 6 0 10 7 10 15 0 8 -4 15 -10 15 -5 0
-10 -7 -10 -15z"/>
<path d="M9916 7562 c-3 -4 8 -13 25 -19 33 -13 50 1 20 16 -24 13 -38 14 -45
3z"/>
<path d="M9513 7519 c-13 -13 -18 -111 -6 -122 3 -4 12 -2 20 4 13 12 16 67 5
107 -6 18 -9 21 -19 11z"/>
<path d="M9922 7498 c2 -13 5 -21 8 -18 3 3 18 -3 32 -12 24 -16 38 -15 38 3
0 5 -18 18 -41 29 l-41 21 4 -23z"/>
<path d="M9303 7362 c-47 -5 -42 -27 6 -27 26 -1 38 3 37 12 -3 17 -7 19 -43
15z"/>
<path d="M15070 7328 c0 -32 3 -39 10 -28 13 20 13 70 0 70 -5 0 -10 -19 -10
-42z"/>
<path d="M6535 7270 c-3 -5 1 -10 9 -10 9 0 16 5 16 10 0 6 -4 10 -9 10 -6 0
-13 -4 -16 -10z"/>
<path d="M9275 7140 c3 -5 11 -10 16 -10 6 0 7 5 4 10 -3 6 -11 10 -16 10 -6
0 -7 -4 -4 -10z"/>
<path d="M9518 6996 c-10 -7 -18 -18 -18 -25 0 -16 30 -14 36 4 10 24 0 35
-18 21z"/>
<path d="M9400 6880 c0 -5 5 -10 10 -10 6 0 10 5 10 10 0 6 -4 10 -10 10 -5 0
-10 -4 -10 -10z"/>
<path d="M14349 6703 c0 -4 -2 -19 -4 -33 -9 -66 -7 -98 9 -123 22 -33 14 -78
-22 -125 -37 -48 -38 -121 -2 -182 34 -58 68 -65 110 -21 35 36 44 67 37 129
-3 31 -12 52 -27 64 -12 10 -23 23 -24 30 -1 7 -9 24 -19 38 -22 32 -22 57 2
96 17 27 17 35 6 51 -7 10 -15 32 -17 48 -2 22 -9 31 -25 33 -13 2 -23 0 -24
-5z"/>
<path d="M15200 6682 c0 -15 -6 -34 -12 -40 -7 -7 -11 -28 -9 -47 1 -22 -2
-35 -9 -35 -10 0 -9 -4 0 -15 7 -8 9 -15 4 -15 -5 0 -3 -4 5 -9 13 -8 13 -12
1 -28 -12 -16 -12 -16 0 -5 8 7 16 23 17 35 1 12 4 36 7 52 12 66 14 135 5
135 -5 0 -9 -13 -9 -28z"/>
<path d="M9270 6670 c-12 -8 -10 -10 8 -10 13 0 20 4 17 10 -7 12 -6 12 -25 0z"/>
<path d="M8877 6634 c-10 -11 -8 -36 2 -30 5 4 11 1 13 -6 3 -8 12 -8 36 3 38
17 41 29 8 29 -13 0 -31 2 -38 5 -8 3 -17 2 -21 -1z"/>
<path d="M8998 6603 c7 -3 16 -2 19 1 4 3 -2 6 -13 5 -11 0 -14 -3 -6 -6z"/>
<path d="M15140 6600 c0 -5 5 -10 11 -10 5 0 7 5 4 10 -3 6 -8 10 -11 10 -2 0
-4 -4 -4 -10z"/>
<path d="M7723 6570 c-12 -28 -8 -39 8 -23 6 6 9 19 6 29 -3 17 -5 16 -14 -6z"/>
<path d="M9095 6580 c-4 -6 -16 -8 -27 -5 -18 6 -18 5 3 -19 25 -29 49 -34 49
-11 0 8 -4 15 -10 15 -5 0 -7 7 -4 15 7 17 -2 20 -11 5z"/>
<path d="M9135 6580 c-16 -7 -17 -9 -3 -9 9 -1 20 4 23 9 7 11 7 11 -20 0z"/>
<path d="M8976 6565 c-16 -12 -17 -15 -4 -15 26 0 48 11 42 21 -7 12 -16 11
-38 -6z"/>
<path d="M15090 6560 c0 -6 7 -10 15 -10 8 0 15 2 15 4 0 2 -7 6 -15 10 -8 3
-15 1 -15 -4z"/>
<path d="M8281 6544 c0 -11 3 -14 6 -6 3 7 2 16 -1 19 -3 4 -6 -2 -5 -13z"/>
<path d="M15121 6404 c0 -11 3 -14 6 -6 3 7 2 16 -1 19 -3 4 -6 -2 -5 -13z"/>
<path d="M15229 6335 c-7 -14 5 -82 13 -70 3 6 3 26 -1 45 -4 19 -9 30 -12 25z"/>
<path d="M15148 6280 c-10 -11 -13 -20 -8 -20 6 0 10 -4 10 -10 0 -5 -7 -10
-16 -10 -14 0 -14 -1 0 -16 9 -8 16 -20 16 -27 0 -6 -6 -3 -13 8 -12 16 -14
14 -11 -21 3 -57 4 -61 15 -39 8 17 9 16 4 -5 -14 -60 -13 -72 7 -78 14 -3 16
-7 8 -12 -10 -6 -10 -20 0 -61 7 -30 15 -61 18 -69 3 -8 4 -18 4 -23 -4 -17
21 -97 30 -97 6 0 8 -6 5 -14 -3 -8 -2 -16 3 -18 5 -2 11 -13 13 -25 9 -61 17
-25 17 76 0 100 -2 115 -20 129 -11 10 -21 35 -25 62 -3 25 -14 83 -24 130
-10 47 -15 92 -11 100 4 8 4 25 1 38 l-6 23 -17 -21z m59 -362 c-3 -8 -6 -5
-6 6 -1 11 2 17 5 13 3 -3 4 -12 1 -19z"/>
<path d="M15164 5757 c7 -48 -21 -257 -49 -369 -8 -32 -15 -68 -15 -81 0 -13
-5 -28 -11 -34 -5 -5 -11 -48 -12 -94 0 -46 -4 -86 -8 -89 -5 -3 -9 -24 -10
-47 -2 -23 -6 -40 -10 -37 -8 5 -14 -12 -24 -71 -3 -22 -18 -76 -32 -120 -33
-107 -74 -255 -77 -280 -4 -36 -38 -180 -48 -205 -13 -31 -30 -150 -30 -208 0
-28 -5 -45 -14 -49 -11 -4 -13 -15 -8 -41 6 -30 4 -34 -10 -29 -9 4 -16 2 -16
-4 0 -5 7 -12 15 -15 8 -4 15 -15 15 -25 0 -10 3 -18 8 -17 4 2 7 -1 7 -7 0
-5 -3 -9 -7 -7 -10 3 -10 -5 1 -26 5 -9 14 -53 20 -97 13 -108 47 -175 65
-129 10 25 7 34 -9 28 -11 -5 -15 1 -15 22 0 23 2 26 10 14 7 -11 10 -11 10
-2 0 7 5 10 10 7 6 -3 15 4 20 17 8 20 9 17 8 -17 -2 -36 -1 -40 20 -37 27 4
28 -3 3 -34 -17 -21 -18 -41 -16 -216 2 -179 19 -459 28 -476 3 -4 7 -30 11
-59 3 -29 10 -62 16 -75 5 -13 19 -58 30 -101 12 -42 30 -96 40 -120 11 -23
20 -52 20 -65 0 -13 14 -52 30 -87 17 -35 30 -68 30 -74 0 -5 5 -11 12 -13 7
-3 11 -19 10 -41 -2 -26 2 -39 13 -43 13 -5 33 -39 48 -84 3 -8 6 628 6 1413
0 1266 -1 1428 -15 1417 -8 -7 -17 -11 -19 -8 -8 7 14 121 25 132 6 6 10 99
10 247 0 198 -2 239 -15 249 -8 7 -15 17 -15 23 0 16 -40 96 -52 103 -7 5 -8
-8 -4 -39z m-314 -1737 c0 -11 0 -23 1 -27 0 -4 -3 -9 -8 -10 -4 -2 -8 11 -9
27 -1 17 3 30 7 30 5 0 9 -9 9 -20z"/>
<path d="M14760 4153 c0 -17 -3 -23 -8 -16 -4 6 -7 -6 -7 -28 0 -21 4 -38 9
-36 21 7 35 107 16 107 -5 0 -10 -12 -10 -27z"/>
<path d="M14720 4010 c0 -11 2 -20 4 -20 2 0 6 9 9 20 3 11 1 20 -4 20 -5 0
-9 -9 -9 -20z"/>
<path d="M11 3916 c-16 -19 -3 -46 23 -46 23 0 51 34 41 50 -9 15 -51 12 -64
-4z"/>
<path d="M14800 3789 c0 -5 5 -7 10 -4 6 3 10 8 10 11 0 2 -4 4 -10 4 -5 0
-10 -5 -10 -11z"/>
<path d="M14730 3440 c0 -5 5 -10 11 -10 5 0 7 5 4 10 -3 6 -8 10 -11 10 -2 0
-4 -4 -4 -10z"/>
<path d="M421 3347 c-19 -21 -21 -32 -17 -87 3 -46 9 -68 22 -77 11 -8 13 -13
5 -13 -7 0 -11 -6 -8 -14 3 -7 -2 -24 -10 -36 -9 -13 -20 -43 -25 -68 -7 -42
-6 -48 19 -74 36 -37 51 -35 70 9 17 41 13 105 -10 151 -11 22 -12 31 -1 52
17 31 18 106 3 149 -13 37 -19 38 -48 8z"/>
<path d="M10247 2504 c-3 -5 -8 -30 -12 -56 -7 -47 -7 -48 20 -48 26 0 27 1
20 43 -8 48 -20 74 -28 61z"/>
<path d="M10245 2361 c-28 -6 -30 -10 -37 -66 -4 -32 -4 -63 0 -67 4 -4 27 -1
50 9 42 16 42 16 42 68 0 58 -7 65 -55 56z"/>
<path d="M15140 2360 c0 -5 5 -10 10 -10 6 0 10 5 10 10 0 6 -4 10 -10 10 -5
0 -10 -4 -10 -10z"/>
<path d="M10094 1535 c4 -33 10 -39 41 -31 30 8 33 31 6 46 -34 17 -50 12 -47
-15z"/>
<path d="M10065 1530 c3 -5 8 -10 11 -10 2 0 4 5 4 10 0 6 -5 10 -11 10 -5 0
-7 -4 -4 -10z"/>
<path d="M10028 1478 c9 -9 15 -9 24 0 9 9 7 12 -12 12 -19 0 -21 -3 -12 -12z"/>
<path d="M9483 1087 c-4 -6 2 -8 13 -5 11 3 25 -1 32 -9 11 -11 9 -16 -8 -15
-3 0 -6 -7 -6 -17 0 -12 6 -17 18 -13 12 3 18 -1 18 -12 0 -47 224 -21 243 29
4 8 17 16 29 16 38 3 -73 17 -134 18 -32 1 -58 5 -58 10 0 13 -139 11 -147 -2z"/>
<path d="M9829 1024 c-1 -5 -1 -13 0 -17 1 -4 -12 -13 -29 -18 -16 -6 -30 -15
-30 -19 0 -16 12 -40 21 -40 18 0 56 46 54 67 -1 23 -14 44 -16 27z"/>
<path d="M9247 964 c-9 -10 2 -24 19 -24 8 0 14 7 14 15 0 15 -21 21 -33 9z"/>
<path d="M4870 558 c0 -9 5 -20 10 -23 18 -11 10 -25 -15 -25 -18 0 -25 -5
-25 -20 0 -13 7 -20 19 -20 11 0 22 -6 24 -12 4 -10 8 -9 16 2 16 22 13 46 -9
82 -13 21 -20 27 -20 16z"/>
<path d="M9200 460 c0 -5 5 -10 10 -10 6 0 10 5 10 10 0 6 -4 10 -10 10 -5 0
-10 -4 -10 -10z"/>
<path d="M4873 419 c-14 -14 -5 -49 13 -49 9 0 14 11 14 30 0 31 -9 37 -27 19z"/>
<path d="M7040 172 c0 -6 -14 -19 -31 -29 -26 -17 -28 -21 -14 -33 12 -10 13
-16 4 -26 -17 -21 -56 -17 -62 6 -3 11 -11 20 -19 20 -8 0 -21 14 -29 31 -14
29 -16 30 -31 15 -14 -14 -15 -19 -3 -44 16 -31 9 -76 -11 -68 -7 3 -17 -1
-23 -7 -8 -11 -53 -14 -86 -7 -22 5 -35 -1 -35 -15 0 -13 55 -15 433 -15 346
0 437 3 451 13 17 13 17 14 2 20 -15 6 -15 9 -2 36 9 16 23 28 32 27 9 0 20 9
25 22 8 21 4 25 -38 43 -39 17 -48 18 -62 6 -9 -8 -24 -17 -33 -20 -10 -4 -18
-13 -18 -22 0 -8 -7 -15 -15 -15 -8 0 -15 5 -15 11 0 6 -7 8 -16 5 -8 -3 -12
-2 -9 4 3 6 2 10 -3 10 -22 0 -105 -30 -120 -43 -10 -9 -38 -18 -64 -22 -40
-6 -48 -5 -48 8 0 9 10 17 23 19 12 2 22 8 22 13 0 6 4 16 9 23 17 27 -11 37
-89 33 -16 -1 -51 1 -77 4 -29 4 -48 2 -48 -3z"/>
<path d="M7297 154 c-13 -13 -7 -24 14 -24 11 0 19 5 17 12 -5 14 -22 21 -31
12z"/>
<path d="M8106 74 c-4 -9 -13 -13 -23 -10 -10 3 -25 1 -33 -4 -11 -7 -2 -10
32 -10 52 0 98 14 98 30 0 17 -67 12 -74 -6z"/>
<path d="M7985 50 c-3 -5 -1 -10 4 -10 6 0 11 5 11 10 0 6 -2 10 -4 10 -3 0
-8 -4 -11 -10z"/>
<path d="M7735 10 c-4 -6 11 -10 37 -9 36 1 39 2 18 9 -36 11 -48 11 -55 0z"/>
<path d="M7855 10 c-12 -5 27 -8 105 -8 104 1 115 2 65 8 -81 10 -146 10 -170
0z"/>
</g>
</svg>
